<svg width="139" height="29" viewBox="0 0 139 29" fill="none" xmlns="http://www.w3.org/2000/svg">
<path fill-rule="evenodd" clip-rule="evenodd" d="M13.8171 12.145V12.268C14.8691 12.35 15.7841 12.801 16.5621 13.621C17.3411 14.441 17.7301 15.569 17.7301 17.004C17.7301 18.766 17.1541 20.171 16.0011 21.216C14.8491 22.261 13.1911 22.784 11.0271 22.784H0.473099V2.184H10.9971C12.8571 2.184 14.3481 2.696 15.4701 3.72C16.5931 4.745 17.1541 6.109 17.1541 7.81C17.1541 9.101 16.8001 10.126 16.0921 10.885C15.3841 11.643 14.6261 12.063 13.8171 12.145ZM5.4771 6.273V10.7H9.8441C10.5921 10.7 11.1891 10.49 11.6341 10.07C12.0791 9.65 12.3011 9.091 12.3011 8.394C12.3011 7.759 12.0841 7.246 11.6491 6.857C11.2141 6.467 10.6731 6.273 10.0261 6.273H5.4771ZM5.4771 18.695H10.1471C10.9371 18.695 11.5471 18.49 11.9831 18.08C12.4171 17.67 12.6351 17.106 12.6351 16.389C12.6351 15.712 12.4121 15.174 11.9671 14.774C11.5231 14.374 10.9471 14.174 10.2391 14.174H5.4771V18.694V18.695ZM35.0571 7.349H30.2051V14.513C30.2051 15.968 29.9271 17.05 29.3711 17.757C28.8151 18.464 28.0411 18.817 27.0511 18.817C26.2831 18.817 25.6561 18.536 25.1711 17.972C24.6851 17.408 24.4431 16.676 24.4431 15.774V7.349H19.6201V16.819C19.6201 18.746 20.1611 20.299 21.2431 21.477C22.3251 22.656 23.7551 23.245 25.5351 23.245C27.4351 23.245 28.9921 22.6 30.2051 21.308V22.784H35.0581V7.35L35.0571 7.349ZM54.4171 7.318H49.2011L45.3501 16.328L41.7401 7.318H36.5241L42.8321 22.261L40.3761 28.011H45.6221L54.4181 7.318H54.4171ZM71.3211 14.082C70.9781 15.579 70.3361 16.712 69.3951 17.48C68.4551 18.249 67.3181 18.633 65.9831 18.633C64.3661 18.633 62.9961 18.043 61.8731 16.865C60.7521 15.686 60.1911 14.226 60.1911 12.484C60.1911 10.741 60.7511 9.286 61.8741 8.117C62.9961 6.949 64.3661 6.365 65.9841 6.365C67.3381 6.365 68.4861 6.739 69.4261 7.487C70.3661 8.235 70.9881 9.337 71.2911 10.792L76.2041 9.624C75.7191 7.226 74.5311 5.309 72.6411 3.874C70.7511 2.439 68.5311 1.722 65.9831 1.722C62.9711 1.722 60.4181 2.762 58.3251 4.842C56.2331 6.923 55.1861 9.47 55.1861 12.484C55.1861 15.517 56.2331 18.069 58.3261 20.14C60.4181 22.21 62.9711 23.245 65.9831 23.245C68.6331 23.245 70.8871 22.518 72.7471 21.062C74.6071 19.607 75.7691 17.608 76.2351 15.066L71.3211 14.082ZM101.25 0C100.441 0 99.7741 0.272 99.2481 0.815C98.7231 1.358 98.4601 2.019 98.4601 2.798C98.4601 3.577 98.7231 4.228 99.2481 4.751C99.7741 5.273 100.441 5.535 101.25 5.535C102.059 5.535 102.731 5.273 103.267 4.751C103.803 4.228 104.071 3.577 104.071 2.798C104.071 2.04 103.803 1.384 103.267 0.83C102.731 0.277 102.059 0 101.25 0V0ZM103.312 22.531V7.096H98.4601V22.53H103.312V22.531ZM116.149 7.096C114.248 7.096 112.691 7.741 111.478 9.033V7.557H106.625V22.992H111.478V15.828C111.478 14.373 111.756 13.291 112.312 12.584C112.868 11.877 113.642 11.524 114.632 11.524C115.4 11.524 116.027 11.805 116.512 12.369C116.998 12.933 117.24 13.665 117.24 14.567V22.992H122.063V13.522C122.063 11.595 121.522 10.042 120.44 8.864C119.358 7.685 117.928 7.096 116.149 7.096ZM124.123 18.964C124.365 20.461 125.139 21.583 126.443 22.331C127.747 23.079 129.36 23.453 131.28 23.453C133.343 23.453 135.01 23.003 136.285 22.101C137.559 21.199 138.195 19.917 138.195 18.257C138.195 17.089 137.842 16.1 137.134 15.29C136.426 14.48 135.374 13.922 133.98 13.614L130.4 12.876C129.633 12.712 129.248 12.354 129.248 11.8C129.248 11.472 129.385 11.19 129.658 10.954C129.931 10.719 130.371 10.601 130.978 10.601C131.685 10.601 132.266 10.775 132.721 11.124C133.176 11.472 133.444 11.903 133.525 12.415L137.953 11.523C137.65 10.17 136.886 9.094 135.663 8.295C134.44 7.495 132.898 7.095 131.038 7.095C129.097 7.095 127.52 7.572 126.306 8.525C125.093 9.479 124.486 10.745 124.486 12.323C124.486 14.763 125.963 16.258 128.915 16.812L132.008 17.427C133.019 17.611 133.525 17.991 133.525 18.565C133.525 18.913 133.348 19.205 132.994 19.441C132.64 19.677 132.16 19.794 131.554 19.794C129.956 19.794 129.056 19.19 128.854 17.98L124.123 18.964Z" fill="#966FDB"/>
<path opacity="0.5" d="M86.333 22.139C90.9352 22.139 94.666 18.4082 94.666 13.806C94.666 9.2038 90.9352 5.47299 86.333 5.47299C81.7308 5.47299 78 9.2038 78 13.806C78 18.4082 81.7308 22.139 86.333 22.139Z" fill="#966FDB"/>
<path opacity="0.748" d="M88.417 18.666C93.0192 18.666 96.75 14.9352 96.75 10.333C96.75 5.73081 93.0192 2 88.417 2C83.8148 2 80.084 5.73081 80.084 10.333C80.084 14.9352 83.8148 18.666 88.417 18.666Z" fill="#966FDB"/>
</svg>
