<svg width="229" height="460" viewBox="0 0 229 460" fill="none" xmlns="http://www.w3.org/2000/svg">
<g opacity="0.08">
<circle cx="129.988" cy="228.532" r="6.02587" fill="#33AE08"/>
<path d="M159.74 199.909L164.633 208.383H154.848L159.74 199.909Z" fill="#FDCF2A"/>
<rect x="30.857" y="21.6494" width="22.5217" height="22.5217" transform="rotate(164 30.857 21.6494)" fill="#1689F2"/>
<rect opacity="0.9" x="224.204" y="36.8535" width="14.1005" height="14.1005" transform="rotate(-165 224.204 36.8535)" fill="#1689F2"/>
<path opacity="0.75" d="M15.3754 218.344L33.0823 238.009L7.1981 243.511L15.3754 218.344Z" fill="#FE5D5D"/>
<rect opacity="0.95" x="210.158" y="289.892" width="16.6331" height="16.6331" transform="rotate(-82 210.158 289.892)" fill="#1689F2"/>
<rect opacity="0.7" x="52.7491" y="357.033" width="14.5321" height="14.5321" transform="rotate(26 52.7491 357.033)" fill="#1689F2"/>
<path opacity="0.96" d="M37.3266 459.488L26.5622 441.573L47.4593 441.209L37.3266 459.488Z" fill="#FE5D5D"/>
<path opacity="0.8" d="M135.765 340.745L134.927 331.165L143.642 335.229L135.765 340.745Z" fill="#FDCF2A"/>
<path opacity="0.92" d="M203.076 364.023L188.961 360.764L198.84 350.17L203.076 364.023Z" fill="#FE5D5D"/>
</g>
</svg>
