<svg width="152" height="29" viewBox="0 0 152 29" fill="none" xmlns="http://www.w3.org/2000/svg">
<path d="M40.6785 23.5178V28.9999H37.2549V11.1533H40.6785V12.0072C41.6981 11.3414 42.886 10.9822 44.1021 10.9719C47.9899 10.9719 50.8486 14.0759 50.8486 17.7739C50.8486 21.472 48.0165 24.576 44.1021 24.576C42.8808 24.578 41.6873 24.2092 40.6785 23.5178ZM40.6785 16.1465V19.3021C40.9486 19.8795 41.3683 20.3735 41.8937 20.7322C42.419 21.0909 43.0308 21.3011 43.6648 21.3409C44.2989 21.3807 44.9319 21.2485 45.4977 20.9583C46.0634 20.6681 46.5411 20.2304 46.8807 19.6912C47.2202 19.152 47.4092 18.531 47.4277 17.8933C47.4463 17.2555 47.2938 16.6245 46.9863 16.0663C46.6787 15.508 46.2273 15.0431 45.6794 14.7201C45.1315 14.3972 44.5073 14.2281 43.872 14.2306C43.2152 14.2213 42.5687 14.3955 42.0048 14.7338C41.4408 15.0722 40.9817 15.5612 40.6785 16.1465Z" fill="#083E9E"/>
<path d="M52.7027 7.55647C52.6915 7.2962 52.7334 7.03639 52.8259 6.793C52.9184 6.54962 53.0595 6.3278 53.2405 6.1412C53.4215 5.95459 53.6386 5.80714 53.8784 5.70791C54.1182 5.60868 54.3758 5.55976 54.6351 5.56417C54.8981 5.55959 55.1593 5.60781 55.4034 5.70599C55.6475 5.80418 55.8697 5.95036 56.0568 6.13595C56.2439 6.32154 56.3921 6.54279 56.4929 6.78673C56.5937 7.03067 56.645 7.29237 56.6437 7.55647C56.6381 8.08762 56.424 8.5951 56.0479 8.96855C55.6718 9.34199 55.164 9.5512 54.6351 9.55067C54.3772 9.54947 54.1221 9.49667 53.8847 9.39536C53.6473 9.29404 53.4323 9.14625 53.2524 8.9606C53.0725 8.77495 52.9313 8.55517 52.8369 8.31409C52.7425 8.073 52.6969 7.81545 52.7027 7.55647ZM52.91 11.1533H56.3869V24.3697H52.91V11.1533Z" fill="#083E9E"/>
<path d="M58.445 17.7242C58.438 16.8347 58.6082 15.9528 58.9455 15.1302C59.2828 14.3077 59.7805 13.5612 60.4092 12.9346C61.0379 12.308 61.785 11.8139 62.6066 11.4814C63.4282 11.149 64.3077 10.9848 65.1933 10.9986C66.4043 10.9992 67.5962 11.3011 68.6626 11.8772V11.1533H72.0634V23.619C72.0634 27.0573 69.1001 28.9216 65.3931 28.9216C62.9718 28.9216 60.6532 28.1976 59.1335 27.0114L60.5505 24.555C61.9948 25.4842 63.6779 25.9695 65.3931 25.9513C67.7877 25.9513 68.5352 24.9962 68.6379 23.4433C67.6064 24.1059 66.4102 24.464 65.1857 24.4766C61.2447 24.4728 58.445 21.5255 58.445 17.7242ZM68.6626 19.197V16.2496C68.3749 15.6346 67.92 15.1139 67.3502 14.7475C66.7804 14.3811 66.1191 14.184 65.4425 14.179C64.9753 14.1745 64.5119 14.2627 64.0788 14.4386C63.6456 14.6146 63.2514 14.8748 62.9188 15.2042C62.5861 15.5337 62.3216 15.9259 62.1404 16.3584C61.9592 16.7909 61.8649 17.255 61.8629 17.7242C61.8629 19.7662 63.4073 21.1893 65.4178 21.1893C66.0924 21.2069 66.7576 21.0282 67.3334 20.6747C67.9091 20.3212 68.3708 19.808 68.6626 19.197Z" fill="#083E9E"/>
<path d="M74.1279 17.7242C74.1209 16.8347 74.2911 15.9528 74.6284 15.1302C74.9658 14.3077 75.4634 13.5612 76.0921 12.9346C76.7209 12.308 77.468 11.8139 78.2896 11.4814C79.1111 11.149 79.9906 10.9848 80.8763 10.9986C82.0898 10.9982 83.2844 11.3001 84.3532 11.8772V11.1533H87.7521V23.619C87.7521 27.0573 84.7906 28.9216 81.0836 28.9216C78.6623 28.9216 76.3437 28.1976 74.824 27.0114L76.241 24.555C77.6852 25.4845 79.3684 25.9698 81.0836 25.9513C83.4782 25.9513 84.2257 24.9962 84.3284 23.4433C83.2968 24.1056 82.1006 24.4637 80.8763 24.4766C76.9353 24.4728 74.1279 21.5255 74.1279 17.7242ZM84.3532 19.197V16.2496C84.0653 15.6348 83.6103 15.1142 83.0405 14.7478C82.4708 14.3814 81.8095 14.1843 81.133 14.179C80.6659 14.1745 80.2024 14.2627 79.7693 14.4386C79.3362 14.6146 78.942 14.8748 78.6093 15.2042C78.2767 15.5337 78.0121 15.9259 77.8309 16.3584C77.6497 16.7909 77.5554 17.255 77.5534 17.7242C77.5534 19.7662 79.0979 21.1893 81.1083 21.1893C81.7829 21.2067 82.448 21.0279 83.0237 20.6744C83.5994 20.3209 84.0611 19.8079 84.3532 19.197Z" fill="#083E9E"/>
<path d="M92.7466 11.1534L96.1987 19.9726L99.7517 11.1534H103.366L95.786 29H92.5678L94.4698 24.2418L88.9368 11.1534H92.7466Z" fill="#083E9E"/>
<path d="M102.709 11.1534H106.391L109.747 20.0776L113.069 11.1534H116.683L111.403 24.3698H107.94L102.709 11.1534Z" fill="#083E9E"/>
<path d="M116.927 17.6708C116.927 13.9479 119.578 10.8688 123.725 10.8688C127.563 10.8688 130.479 13.7665 130.549 17.5734C130.576 17.9008 130.576 18.2298 130.549 18.5572H120.172C120.274 20.4196 122.051 21.6344 123.957 21.6344C125.528 21.6344 126.454 21.1951 127.536 20.2973L129.417 22.2896C127.896 23.8922 126.374 24.6429 123.957 24.6429C119.502 24.6296 116.927 21.2925 116.927 17.6708ZM120.35 16.0931H126.996C126.661 14.8534 125.474 13.7665 123.673 13.7665C121.587 13.7665 120.712 14.8266 120.35 16.0931Z" fill="#083E9E"/>
<path d="M131.268 22.9486L132.951 20.2056C134.462 21.2169 136.233 21.7651 138.048 21.7834C139.775 21.7834 140.65 21.3441 140.65 20.5953C140.65 20.1025 140.237 19.7414 139.363 19.56L135.749 18.7845C133.097 18.2114 131.886 16.9488 131.886 14.8801C131.886 12.6815 133.74 10.8439 137.578 10.8439C139.895 10.8439 141.953 11.5182 143.372 12.3969L141.801 15.0348C140.643 14.414 139.098 13.7416 137.474 13.7416C136.007 13.7416 135.157 14.1046 135.157 14.775C135.157 15.2163 135.467 15.5009 136.315 15.6556L139.359 16.2287C142.655 16.8743 143.924 18.3489 143.924 20.3412C143.924 23.2065 141.071 24.7117 137.947 24.7117C135.601 24.7572 133.288 24.1468 131.268 22.9486Z" fill="#083E9E"/>
<path d="M144.609 11.1534H146.566V7.50687L149.989 5.28345V11.1534H151.998V14.1542H149.991V24.3716H146.568V14.1542H144.607V11.1534H144.609Z" fill="#083E9E"/>
<path d="M28.6825 13.2793C28.6254 12.4404 28.4884 11.6088 28.2735 10.7961C27.294 7.16681 25.2303 4.31112 22.0844 2.27299C20.1028 0.978761 17.8268 0.210478 15.4691 0.0400119C14.4786 -0.0326452 13.4834 -0.00576961 12.4982 0.120238C11.4603 0.2582 10.4401 0.507302 9.45495 0.863289C6.8317 1.81359 4.54223 3.51318 2.86815 5.75303C1.19407 7.99288 0.208383 10.6753 0.0323344 13.4703C0 13.9842 0 14.5018 0 15.0176V27.5558C0 27.8816 0.128851 28.194 0.358208 28.4243C0.587565 28.6546 0.89864 28.7841 1.223 28.7841H6.04652C6.34838 28.7822 6.63907 28.6691 6.86344 28.4663C7.08782 28.2635 7.23028 27.9851 7.26382 27.6838C7.29556 27.5661 7.31218 27.4447 7.31327 27.3228V27.0324C7.31042 27.0102 7.31042 26.9878 7.31327 26.9656V26.9331C7.34617 26.9419 7.37714 26.9568 7.40457 26.977C9.20878 27.979 11.207 28.5784 13.2628 28.7344C14.0862 28.7955 14.9134 28.7872 15.7354 28.7096C17.6706 28.5306 19.5489 27.9556 21.2545 27.02C22.96 26.0844 24.4568 24.808 25.6526 23.2694C27.357 21.1162 28.3999 18.5109 28.6539 15.7721C28.74 14.9438 28.7495 14.1093 28.6825 13.2793ZM16.928 21.2905C16.9195 21.3347 16.8958 21.3744 16.861 21.4027C16.8262 21.431 16.7825 21.446 16.7378 21.4452H11.9827C11.938 21.446 11.8943 21.431 11.8596 21.4027C11.8248 21.3744 11.801 21.3347 11.7925 21.2905V21.2599V21.0823C11.7915 20.8631 11.8157 20.6445 11.8648 20.4309C11.8952 20.3583 11.9143 20.2724 11.9447 20.1922C11.9751 20.1119 12.0056 20.0374 12.036 19.9591C12.0664 19.8808 12.1159 19.8101 12.1577 19.7433L12.2262 19.6401C12.2709 19.5734 12.3198 19.5096 12.3726 19.4491C12.4278 19.3804 12.483 19.3211 12.5381 19.2581C12.8243 18.9755 13.172 18.7636 13.5538 18.6392C13.2249 18.4594 12.965 18.1747 12.8149 17.8302C12.6648 17.4856 12.6332 17.1007 12.7249 16.7361C12.8167 16.3715 13.0266 16.0479 13.3216 15.8163C13.6167 15.5847 13.9801 15.4582 14.3546 15.4569C14.8017 15.4603 15.2297 15.6392 15.5471 15.9554C15.7309 16.1412 15.8692 16.3672 15.9513 16.6157C16.0333 16.8642 16.0569 17.1285 16.02 17.3877C15.9831 17.6469 15.8869 17.8939 15.7388 18.1095C15.5907 18.325 15.3949 18.503 15.1667 18.6297C15.6803 18.7997 16.1273 19.1285 16.4436 19.569C16.76 20.0095 16.9295 20.5392 16.928 21.0823C16.928 21.1511 16.928 21.2256 16.928 21.2905ZM25.1257 10.8878H3.60243C3.56208 10.8875 3.52238 10.8776 3.48659 10.8589C3.45079 10.8402 3.41993 10.8133 3.39653 10.7803C3.37313 10.7473 3.35787 10.7092 3.352 10.6691C3.34613 10.629 3.34983 10.5881 3.36277 10.5497C4.16588 8.264 5.65516 6.28474 7.62535 4.88474C9.59553 3.48474 11.9496 2.73293 14.3631 2.73293C16.7766 2.73293 19.1307 3.48474 21.1009 4.88474C23.0711 6.28474 24.5603 8.264 25.3634 10.5497C25.3763 10.5879 25.3801 10.6287 25.3743 10.6686C25.3685 10.7085 25.3534 10.7465 25.3303 10.7795C25.3071 10.8125 25.2765 10.8395 25.2409 10.8583C25.2054 10.8771 25.1659 10.8872 25.1257 10.8878Z" fill="#083E9E"/>
</svg>
