<svg width="428" height="1077" viewBox="0 0 428 1077" fill="none" xmlns="http://www.w3.org/2000/svg">
<g opacity="0.3">
<line x1="8.87418" y1="883.67" x2="-601.292" y2="156.502" stroke="#A2F0C5"/>
<line x1="32.0998" y1="879.575" x2="-578.067" y2="152.407" stroke="#A2F0C5"/>
<line x1="55.3253" y1="875.48" x2="-554.841" y2="148.312" stroke="#A2F0C5"/>
<line x1="78.5509" y1="871.385" x2="-531.616" y2="144.216" stroke="#A2F0C5"/>
<line x1="101.776" y1="867.289" x2="-508.39" y2="140.121" stroke="#A2F0C5"/>
<line x1="310.807" y1="830.432" x2="-299.36" y2="103.263" stroke="#A2F0C5"/>
<line x1="334.032" y1="826.336" x2="-276.134" y2="99.1681" stroke="#A2F0C5"/>
<line x1="357.258" y1="822.241" x2="-252.909" y2="95.0728" stroke="#A2F0C5"/>
<line x1="380.483" y1="818.146" x2="-229.683" y2="90.9776" stroke="#A2F0C5"/>
<line x1="403.709" y1="814.05" x2="-206.458" y2="86.8823" stroke="#A2F0C5"/>
<line x1="426.935" y1="809.955" x2="-183.232" y2="82.7869" stroke="#A2F0C5"/>
<line x1="125.002" y1="863.194" x2="-485.165" y2="136.026" stroke="#A2F0C5"/>
<line x1="148.228" y1="859.099" x2="-461.939" y2="131.93" stroke="#A2F0C5"/>
<line x1="171.453" y1="855.003" x2="-438.713" y2="127.835" stroke="#A2F0C5"/>
<line x1="194.679" y1="850.908" x2="-415.488" y2="123.74" stroke="#A2F0C5"/>
<line x1="217.904" y1="846.813" x2="-392.262" y2="119.645" stroke="#A2F0C5"/>
<line x1="241.13" y1="842.718" x2="-369.037" y2="115.549" stroke="#A2F0C5"/>
<line x1="264.355" y1="838.622" x2="-345.811" y2="111.454" stroke="#A2F0C5"/>
<line x1="287.581" y1="834.527" x2="-322.586" y2="107.359" stroke="#A2F0C5"/>
</g>
</svg>
