<svg width="21" height="20" viewBox="0 0 21 20" fill="none" xmlns="http://www.w3.org/2000/svg">
<path fill-rule="evenodd" clip-rule="evenodd" d="M12.7064 8.339C12.3994 8.34012 12.0952 8.28061 11.8113 8.16388C11.7326 8.13223 11.6559 8.09554 11.5819 8.05403C11.3584 8.39945 11.1799 8.77194 11.0506 9.16251C10.9718 9.44842 11.0506 20 11.0506 20H9.70547L9.6471 9.62009L9.6449 9.44873C9.59069 8.94926 9.40027 8.47428 9.09443 8.07569C8.96079 8.23223 8.80005 8.36341 8.6199 8.46297C8.31089 8.63641 7.9618 8.72579 7.60746 8.72219C7.56854 8.72219 7.52868 8.72219 7.48945 8.71937L7.34885 8.71278H7.31496C6.95747 8.71713 6.60166 8.66339 6.2614 8.55366C5.82412 8.36643 5.43628 8.08023 5.12844 7.7176C4.82904 7.39779 4.52901 7.09808 4.18473 6.77608C3.71546 6.33529 3.20739 5.93772 2.66669 5.5882C2.2376 5.31092 1.78887 5.06527 1.32409 4.85319C0.89853 4.65292 0.455256 4.49269 0 4.37458C0.450877 4.00383 0.93607 3.6769 1.44899 3.39823C1.94476 3.12227 2.46646 2.89573 3.00658 2.72191C3.6151 2.52504 4.25006 2.42207 4.88961 2.41654C5.69384 2.41289 6.48696 2.60425 7.20104 2.97423C7.83728 3.28557 8.41155 3.7101 8.89577 4.22708C9.23197 4.59389 9.4771 5.03469 9.61132 5.51382C9.7386 5.99726 9.7386 6.50542 9.61132 6.98886C9.5904 7.07674 9.56487 7.16357 9.53474 7.24935C9.83851 7.63686 10.1124 8.04687 10.3542 8.47583C10.5107 8.10948 10.6821 7.75024 10.8686 7.39811C10.7192 7.20553 10.5881 6.99938 10.4772 6.78236C10.1974 6.25281 10.0594 5.65992 10.0764 5.06126C10.1035 4.46587 10.2706 3.88526 10.5641 3.36653C10.9892 2.6329 11.5445 1.98289 12.2027 1.44835C13.3669 0.476268 14.8456 -0.0379092 16.3617 0.00217919C16.9573 0.00490713 17.5513 0.0648113 18.1355 0.181067C18.6354 0.279339 19.1282 0.410815 19.6105 0.574621C20.0843 0.731169 20.5459 0.922504 20.9914 1.14706C20.4918 1.40722 20.0175 1.71339 19.5748 2.06159C19.0894 2.43418 18.6319 2.84168 18.2058 3.28085C17.6687 3.83428 17.1826 4.43511 16.7537 5.07601C16.4398 5.54677 16.1696 5.97736 15.9063 6.43054C15.6448 6.93664 15.2693 7.37508 14.8094 7.71132C14.3761 7.95729 13.9074 8.13462 13.4198 8.237C13.1878 8.30376 12.9478 8.33808 12.7064 8.339ZM9.0009 6.62418C9.05396 6.31982 9.0382 6.00744 8.95477 5.70997C8.84534 5.32125 8.64675 4.96341 8.37479 4.66489C7.97764 4.23712 7.50519 3.88606 6.98103 3.62922C6.33947 3.29947 5.62757 3.13008 4.90624 3.13555C4.46928 3.13774 4.03403 3.1904 3.60915 3.29247C3.24615 3.3789 2.89069 3.49434 2.54618 3.63769C2.20464 3.77615 1.87585 3.94417 1.56355 4.13983H1.56574C1.89361 4.27953 2.21228 4.43991 2.51981 4.62001C3.27684 5.05703 3.98147 5.57909 4.62002 6.17602C4.87674 6.41705 5.09957 6.63987 5.3224 6.87776C6.10009 7.70787 6.74346 7.93634 7.14674 7.98122C7.21791 7.98924 7.28947 7.99333 7.36109 7.99346C7.68399 7.99517 8.00099 7.90693 8.27656 7.73862C8.38634 7.67338 8.48782 7.59508 8.57879 7.50544L8.57188 7.49822C8.24805 7.1325 7.89871 6.79019 7.52649 6.47385C7.25616 6.2528 6.94652 6.08477 6.61384 5.97861C6.37092 5.89503 6.13527 5.79164 5.90927 5.66948L6.48831 4.86763C7.30631 5.19493 8.05145 5.68088 8.68079 6.29748C8.79 6.40439 8.89671 6.51329 9.0009 6.62418ZM12.895 7.40878C12.621 7.41112 12.3494 7.35773 12.0966 7.25186C12.1613 7.14986 12.23 7.03939 12.3044 6.91919C12.884 5.99235 13.559 5.12867 14.3183 4.34226L13.5691 3.70579C12.8097 4.50621 12.1229 5.37257 11.5169 6.29465C11.4481 6.40031 11.3807 6.50691 11.3148 6.61445C11.0184 6.17334 10.8713 5.64871 10.8952 5.11775C10.9178 4.63447 11.0529 4.16312 11.2897 3.74126C11.6377 3.13535 12.0943 2.59872 12.6367 2.15825C13.193 1.68703 13.8407 1.33601 14.5392 1.12729C15.1572 0.944877 15.7986 0.854463 16.443 0.85896C17.0793 0.862023 17.7134 0.935703 18.3335 1.07865C18.5939 1.1365 18.8505 1.20986 19.1021 1.29833C18.7556 1.54938 18.4258 1.8229 18.1151 2.11714C17.3492 2.83096 16.6675 3.63007 16.0833 4.49886C15.8486 4.84974 15.6483 5.16985 15.4531 5.50692C15.0765 6.1575 14.452 6.99451 13.6212 7.28575C13.388 7.36858 13.1425 7.41124 12.895 7.41192V7.40878Z" fill="white"/>
</svg>
