<svg width="203" height="60" viewBox="0 0 203 60" fill="none" xmlns="http://www.w3.org/2000/svg">
<path d="M195.295 60H7.0932C5.21229 59.9956 3.40978 59.246 2.08034 57.9154C0.750894 56.5849 0.00285184 54.7817 0 52.9008L0 7.0884C0.00285924 5.20849 0.751247 3.40646 2.081 2.07761C3.41075 0.748755 5.21328 0.00158672 7.0932 5.20266e-08H195.295C197.186 -0.000227043 199 0.743004 200.347 2.06922C201.694 3.39544 202.466 5.19825 202.495 7.0884V52.9008C202.467 54.7923 201.696 56.597 200.349 57.9252C199.002 59.2534 197.187 59.9986 195.295 60Z" fill="black"/>
<path d="M201.047 52.9018C201.047 53.6567 200.898 54.4042 200.609 55.1015C200.32 55.7988 199.896 56.4324 199.362 56.9659C198.828 57.4994 198.194 57.9224 197.497 58.2107C196.799 58.499 196.051 58.647 195.296 58.6462H7.09319C5.56766 58.6481 4.10384 58.044 3.02366 56.9668C1.94349 55.8895 1.33542 54.4274 1.33319 52.9018V7.08703C1.3351 5.56063 1.9428 4.0974 3.0228 3.01875C4.1028 1.94009 5.56679 1.33423 7.09319 1.33423H195.295C196.051 1.33439 196.798 1.48331 197.496 1.7725C198.194 2.06169 198.828 2.48548 199.362 3.01968C199.896 3.55388 200.319 4.18802 200.608 4.8859C200.897 5.58377 201.046 6.33172 201.046 7.08703V52.9018H201.047Z" fill="black"/>
<path d="M45.192 29.6746C45.2108 28.2079 45.6004 26.7698 46.3245 25.4942C47.0486 24.2185 48.0836 23.1468 49.3332 22.3786C48.5391 21.2451 47.4918 20.3121 46.2742 19.6539C45.0567 18.9957 43.7026 18.6303 42.3192 18.5866C39.3684 18.2758 36.5064 20.3518 34.9992 20.3518C33.4656 20.3518 31.152 18.6166 28.6572 18.6718C27.0445 18.7238 25.4728 19.1927 24.0954 20.0329C22.7179 20.8731 21.5815 22.0558 20.7972 23.4658C17.3976 29.3458 19.9332 37.9978 23.19 42.7546C24.8184 45.0838 26.7228 47.6854 29.214 47.593C31.6512 47.4922 32.562 46.039 35.5032 46.039C38.418 46.039 39.2724 47.593 41.814 47.5342C44.43 47.4922 46.0764 45.1942 47.6484 42.8434C48.8191 41.184 49.7199 39.3497 50.3172 37.4086C48.7977 36.7654 47.5014 35.6889 46.5899 34.3135C45.6785 32.938 45.1923 31.3247 45.192 29.6746Z" fill="white"/>
<path d="M40.392 15.4584C41.8182 13.7468 42.5208 11.5466 42.3504 9.3252C40.1707 9.55371 38.157 10.5948 36.7104 12.2412C36.0036 13.0453 35.4623 13.9808 35.1174 14.9943C34.7725 16.0078 34.6308 17.0793 34.7004 18.1476C35.7908 18.1596 36.8697 17.9238 37.8557 17.458C38.8416 16.9921 39.7089 16.3084 40.392 15.4584Z" fill="white"/>
<path d="M80.4684 47.256H77.0616L75.1956 41.3928H68.7096L66.9324 47.256H63.6156L70.0416 27.2988H74.01L80.4684 47.256ZM74.634 38.9328L72.9468 33.72C72.7684 33.1872 72.4328 31.9336 71.94 29.9592H71.8836C71.6868 30.808 71.3708 32.0616 70.9356 33.72L69.2784 38.9328H74.634Z" fill="white"/>
<path d="M96.9936 39.8825C97.1098 42.0011 96.3981 44.0819 95.0088 45.6857C94.4513 46.2984 93.7691 46.7846 93.008 47.1116C92.2469 47.4387 91.4246 47.5989 90.5964 47.5817C89.7938 47.6469 88.9887 47.4913 88.2683 47.1318C87.5478 46.7722 86.9395 46.2223 86.5092 45.5417H86.4492V53.1221H83.2512V37.6013C83.2512 36.0621 83.2112 34.4825 83.1312 32.8625H85.944L86.1228 35.1425H86.1828C86.6675 34.4006 87.3188 33.7822 88.0848 33.3366C88.8508 32.891 89.7102 32.6304 90.5947 32.5756C91.4792 32.5208 92.3642 32.6734 93.1793 33.0211C93.9944 33.3688 94.717 33.9021 95.2896 34.5785C96.4803 36.0822 97.0857 37.9666 96.9936 39.8825ZM93.7356 40.0025C93.7856 38.7774 93.4544 37.567 92.7876 36.5381C92.4789 36.0877 92.0625 35.7216 91.5763 35.4733C91.0901 35.2249 90.5494 35.1021 90.0036 35.1161C89.2177 35.1158 88.4572 35.3938 87.8568 35.9009C87.2167 36.4227 86.7732 37.1468 86.5992 37.9541C86.5113 38.2723 86.4614 38.5997 86.4504 38.9297V41.3297C86.4224 42.3034 86.7656 43.2514 87.4104 43.9817C87.7219 44.3352 88.1078 44.6154 88.5404 44.8021C88.9729 44.9888 89.4415 45.0775 89.9124 45.0617C90.4603 45.0838 91.005 44.9679 91.4965 44.7247C91.988 44.4815 92.4105 44.1187 92.7252 43.6697C93.4443 42.5831 93.7983 41.2955 93.7356 39.9941V40.0025Z" fill="white"/>
<path d="M113.549 39.8825C113.665 42.0013 112.953 44.0824 111.563 45.6857C111.006 46.2985 110.324 46.7848 109.563 47.1118C108.802 47.4389 107.98 47.5991 107.152 47.5817C106.35 47.646 105.546 47.4899 104.827 47.1303C104.108 46.7708 103.501 46.2214 103.072 45.5417H103.012V53.1221H99.8076V37.6013C99.8076 36.0621 99.7676 34.4825 99.6876 32.8625H102.498L102.677 35.1425H102.738C103.223 34.4006 103.874 33.7822 104.64 33.3366C105.406 32.8909 106.266 32.6304 107.151 32.5756C108.035 32.5208 108.92 32.6734 109.735 33.0211C110.551 33.3688 111.273 33.9021 111.846 34.5785C113.035 36.0833 113.639 37.967 113.549 39.8825ZM110.291 40.0025C110.34 38.7773 110.009 37.5668 109.342 36.5381C109.033 36.0876 108.617 35.7215 108.131 35.4731C107.645 35.2247 107.104 35.102 106.559 35.1161C105.773 35.1159 105.012 35.3939 104.411 35.9009C103.771 36.4226 103.327 37.1467 103.153 37.9541C103.066 38.2724 103.016 38.5998 103.004 38.9297V41.3297C102.978 42.3031 103.321 43.2505 103.964 43.9817C104.276 44.3351 104.663 44.6152 105.096 44.8019C105.529 44.9886 105.998 45.0773 106.469 45.0617C107.017 45.0838 107.561 44.9679 108.053 44.7247C108.544 44.4815 108.967 44.1187 109.282 43.6697C110 42.583 110.354 41.2954 110.291 39.9941V40.0025Z" fill="white"/>
<path d="M132.055 41.6583C132.081 42.437 131.936 43.2119 131.63 43.9283C131.324 44.6448 130.864 45.2852 130.283 45.8043C128.754 47.048 126.813 47.6716 124.846 47.5515C123.038 47.6372 121.244 47.206 119.672 46.3083L120.414 43.6431C121.806 44.4896 123.407 44.9313 125.036 44.9187C126.041 44.9788 127.035 44.6906 127.852 44.1027C128.178 43.8431 128.439 43.5104 128.614 43.1315C128.788 42.7526 128.871 42.338 128.856 41.9211C128.864 41.5425 128.795 41.1663 128.652 40.8155C128.509 40.4647 128.297 40.1467 128.027 39.8811C127.225 39.1822 126.287 38.6568 125.273 38.3379C121.778 37.0347 120.031 35.1267 120.032 32.6139C120.013 31.8463 120.168 31.0844 120.486 30.3857C120.805 29.6869 121.278 29.0697 121.87 28.5807C123.252 27.474 124.991 26.9118 126.76 27.0003C128.324 26.9457 129.878 27.271 131.29 27.9483L130.495 30.5571C129.32 29.9325 128.005 29.6166 126.674 29.6391C125.724 29.5819 124.786 29.8772 124.04 30.4683C123.785 30.6943 123.581 30.9727 123.443 31.2846C123.306 31.5965 123.237 31.9345 123.241 32.2755C123.234 32.6498 123.313 33.0208 123.472 33.3598C123.631 33.6988 123.865 33.9966 124.158 34.2303C125.038 34.8952 126.018 35.4153 127.062 35.7711C128.496 36.2766 129.793 37.107 130.853 38.1975C131.671 39.1609 132.1 40.3951 132.055 41.6583Z" fill="white"/>
<path d="M142.633 35.2622H139.108V42.251C139.108 44.0286 139.73 44.917 140.974 44.9162C141.452 44.9265 141.929 44.8765 142.394 44.7674L142.483 47.1962C141.682 47.46 140.84 47.5819 139.997 47.5562C139.449 47.5864 138.901 47.4988 138.39 47.2995C137.879 47.1002 137.417 46.7936 137.034 46.4006C136.216 45.2808 135.837 43.9003 135.967 42.5198V35.255H133.867V32.855H135.967V30.215L139.109 29.267V32.855H142.634V35.255L142.633 35.2622Z" fill="white"/>
<path d="M158.538 39.9411C158.616 41.9317 157.939 43.8781 156.642 45.3903C155.975 46.1186 155.157 46.6921 154.245 47.0707C153.333 47.4492 152.349 47.6236 151.362 47.5815C150.418 47.6232 149.477 47.4566 148.604 47.0934C147.732 46.7303 146.95 46.1795 146.315 45.4803C145.037 44.0161 144.365 42.1207 144.433 40.1787C144.352 38.1714 145.046 36.2098 146.372 34.7007C147.036 33.987 147.848 33.4264 148.75 33.0579C149.653 32.6895 150.625 32.522 151.598 32.5671C152.549 32.5282 153.497 32.6961 154.377 33.0593C155.256 33.4225 156.046 33.9723 156.692 34.6707C157.957 36.128 158.617 38.0133 158.538 39.9411ZM155.22 40.0443C155.255 38.8486 154.958 37.6665 154.362 36.6291C154.093 36.1018 153.681 35.6608 153.173 35.3563C152.665 35.0518 152.082 34.8962 151.49 34.9071C150.889 34.8907 150.295 35.0439 149.776 35.3493C149.257 35.6547 148.835 36.0999 148.558 36.6339C147.956 37.6926 147.659 38.897 147.7 40.1139C147.664 41.3094 147.961 42.4912 148.558 43.5279C148.839 44.051 149.257 44.4878 149.767 44.7912C150.277 45.0946 150.861 45.2533 151.454 45.2502C152.048 45.2471 152.63 45.0824 153.137 44.7737C153.644 44.465 154.058 44.0239 154.333 43.4979C154.945 42.4519 155.252 41.2557 155.22 40.0443Z" fill="white"/>
<path d="M168.926 35.6739C168.594 35.6137 168.256 35.5839 167.918 35.5851C167.412 35.5619 166.908 35.6666 166.452 35.8895C165.997 36.1124 165.605 36.4464 165.312 36.8607C164.753 37.7005 164.473 38.6954 164.513 39.7035V47.2563H161.316L161.346 37.3959C161.346 35.7367 161.306 34.2263 161.226 32.8647H164.011L164.131 35.6187H164.22C164.522 34.7205 165.078 33.9287 165.82 33.3387C166.487 32.8391 167.297 32.5685 168.131 32.5671C168.398 32.5658 168.666 32.5855 168.93 32.6259V35.6739H168.926Z" fill="white"/>
<path d="M183.234 39.3781C183.241 39.8645 183.201 40.3504 183.114 40.8289H173.528C173.507 41.441 173.621 42.0503 173.862 42.6135C174.102 43.1768 174.464 43.6802 174.92 44.0881C175.813 44.7873 176.926 45.1444 178.058 45.0949C179.384 45.1125 180.7 44.8818 181.94 44.4145L182.442 46.6345C180.912 47.2601 179.269 47.5628 177.617 47.5237C176.652 47.577 175.686 47.4295 174.781 47.0906C173.875 46.7517 173.05 46.2286 172.357 45.5545C171.705 44.8448 171.2 44.0126 170.873 43.1062C170.545 42.1997 170.401 41.2372 170.448 40.2745C170.377 38.3141 171.008 36.3927 172.226 34.8553C172.825 34.1025 173.593 33.5012 174.467 33.1001C175.342 32.699 176.298 32.5094 177.259 32.5465C178.176 32.4957 179.091 32.6814 179.916 33.0856C180.741 33.4899 181.449 34.0993 181.97 34.8553C182.847 36.1969 183.288 37.7764 183.234 39.3781ZM180.185 38.5489C180.227 37.6858 180.01 36.8297 179.563 36.0901C179.299 35.6577 178.923 35.3051 178.474 35.0703C178.025 34.8354 177.52 34.7271 177.014 34.7569C176.516 34.7482 176.023 34.8625 175.579 35.0898C175.135 35.3172 174.754 35.6504 174.469 36.0601C173.926 36.7834 173.6 37.6461 173.528 38.5477H180.19L180.185 38.5489Z" fill="white"/>
<path d="M73.5756 15.0129C73.6296 15.7543 73.5149 16.4982 73.2401 17.1888C72.9654 17.8795 72.5377 18.4989 71.9892 19.0005C70.7883 19.8946 69.3086 20.3327 67.8144 20.2365C67.0463 20.2422 66.2786 20.2021 65.5152 20.1165V10.4721C66.4107 10.3319 67.316 10.2637 68.2224 10.2681C69.6094 10.1671 70.9869 10.5645 72.1068 11.3889C72.6068 11.8449 72.9983 12.4071 73.2525 13.0342C73.5067 13.6614 73.6171 14.3375 73.5756 15.0129ZM71.9184 15.0561C71.9512 14.5777 71.8878 14.0975 71.7317 13.6441C71.5757 13.1906 71.3303 12.7731 71.01 12.4161C70.6518 12.0921 70.2318 11.8439 69.7753 11.6864C69.3187 11.5288 68.835 11.4652 68.3532 11.4993C67.9289 11.4929 67.505 11.527 67.0872 11.6013V18.9345C67.4399 18.9716 67.7947 18.986 68.1492 18.9777C68.6574 19.01 69.1668 18.9377 69.6459 18.7651C70.125 18.5926 70.5636 18.3235 70.9344 17.9745C71.2821 17.5766 71.5478 17.114 71.7164 16.6132C71.8851 16.1124 71.9533 15.5833 71.9172 15.0561H71.9184Z" fill="white"/>
<path d="M82.3632 16.5548C82.4017 17.5327 82.0691 18.4891 81.432 19.232C81.105 19.59 80.7037 19.8722 80.2562 20.0588C79.8086 20.2453 79.3257 20.3318 78.8412 20.312C78.3772 20.3327 77.9144 20.2508 77.4857 20.0722C77.057 19.8936 76.6729 19.6227 76.3608 19.2788C75.7343 18.5591 75.4045 17.6284 75.438 16.6748C75.3988 15.6897 75.7399 14.7273 76.3908 13.9868C76.7175 13.6367 77.1163 13.3618 77.5597 13.1811C78.0031 13.0004 78.4805 12.9183 78.9588 12.9404C79.4258 12.9217 79.8913 13.0043 80.3234 13.1824C80.7555 13.3605 81.1439 13.63 81.462 13.9724C82.0783 14.6882 82.4003 15.611 82.3632 16.5548ZM80.7324 16.6064C80.7492 16.0183 80.6035 15.437 80.3112 14.9264C80.1781 14.6687 79.9755 14.4534 79.7263 14.3049C79.477 14.1564 79.1912 14.0807 78.9012 14.0864C78.6067 14.0779 78.3156 14.1521 78.0611 14.3005C77.8066 14.449 77.5988 14.6658 77.4612 14.9264C77.1661 15.4459 77.0203 16.0369 77.04 16.634C77.0232 17.2221 77.169 17.8034 77.4612 18.314C77.5986 18.5718 77.8046 18.7867 78.0563 18.9349C78.3081 19.0831 78.5959 19.159 78.888 19.154C79.1799 19.1558 79.4666 19.0762 79.7157 18.924C79.9648 18.7717 80.1665 18.553 80.298 18.2924C80.5953 17.7813 80.7441 17.1974 80.7276 16.6064H80.7324Z" fill="white"/>
<path d="M94.1484 13.0787L91.9356 20.1491H90.4956L89.5788 17.0783C89.3504 16.3285 89.1606 15.5675 89.01 14.7983H88.9812C88.8453 15.5707 88.6552 16.3326 88.4124 17.0783L87.4392 20.1491H85.9836L83.9028 13.0787H85.518L86.3172 16.4387C86.5108 17.2339 86.6708 17.9903 86.7972 18.7079H86.826C86.9428 18.1167 87.1372 17.3651 87.4092 16.4531L88.4124 13.0787H89.6928L90.6528 16.3811C90.8856 17.1867 91.0744 17.9627 91.2192 18.7091H91.2624C91.3808 17.9251 91.541 17.148 91.7424 16.3811L92.6004 13.0787H94.1436H94.1484Z" fill="white"/>
<path d="M102.298 20.149H100.726V16.099C100.726 14.851 100.251 14.227 99.3012 14.227C99.0853 14.2207 98.8708 14.2638 98.674 14.353C98.4773 14.4422 98.3035 14.5752 98.166 14.7418C97.8779 15.0792 97.7227 15.5101 97.7292 15.9538V20.1478H96.1572V15.0982C96.1572 14.4774 96.138 13.803 96.0996 13.075H97.4808L97.554 14.1802H97.5972C97.7889 13.829 98.07 13.5346 98.412 13.327C98.8396 13.0624 99.3336 12.9247 99.8364 12.9298C100.14 12.9205 100.442 12.9724 100.724 13.0825C101.007 13.1926 101.265 13.3586 101.482 13.5706C101.771 13.8844 101.993 14.2545 102.133 14.6576C102.273 15.0608 102.329 15.4885 102.296 15.9142L102.298 20.149Z" fill="white"/>
<path d="M106.632 20.1491H105.061V9.8291H106.632V20.1491Z" fill="white"/>
<path d="M115.886 16.5554C115.925 17.5333 115.592 18.4896 114.955 19.2326C114.628 19.5906 114.227 19.8727 113.779 20.0592C113.332 20.2458 112.849 20.3323 112.364 20.3126C111.9 20.3335 111.438 20.2517 111.009 20.0731C110.58 19.8946 110.196 19.6235 109.884 19.2794C109.257 18.5597 108.928 17.629 108.961 16.6754C108.922 15.6903 109.263 14.7279 109.914 13.9874C110.24 13.6374 110.639 13.3625 111.082 13.1819C111.526 13.0012 112.003 12.919 112.481 12.941C112.948 12.9219 113.414 13.0043 113.847 13.1825C114.279 13.3606 114.668 13.6303 114.986 13.973C115.602 14.689 115.924 15.6117 115.886 16.5554ZM114.254 16.607C114.271 16.0189 114.125 15.4376 113.833 14.927C113.7 14.6693 113.498 14.4539 113.249 14.3054C113 14.157 112.714 14.0813 112.424 14.087C112.13 14.0781 111.839 14.1521 111.584 14.3006C111.329 14.4491 111.122 14.6661 110.984 14.927C110.689 15.4465 110.543 16.0374 110.563 16.6346C110.546 17.2227 110.692 17.804 110.984 18.3146C111.122 18.5724 111.328 18.7873 111.58 18.9355C111.831 19.0837 112.119 19.1595 112.411 19.1546C112.703 19.1565 112.989 19.0768 113.238 18.9246C113.487 18.7723 113.689 18.5536 113.82 18.293C114.12 17.7827 114.27 17.1986 114.254 16.607Z" fill="white"/>
<path d="M123.498 20.1494H122.083L121.963 19.3346H121.92C121.683 19.6546 121.37 19.9111 121.01 20.0813C120.649 20.2515 120.253 20.3301 119.855 20.3102C119.556 20.3226 119.258 20.272 118.98 20.1616C118.701 20.0512 118.45 19.8835 118.241 19.6694C118.058 19.4776 117.915 19.2517 117.82 19.0046C117.726 18.7575 117.68 18.494 117.688 18.2294C117.672 17.8327 117.764 17.4393 117.954 17.0909C118.145 16.7425 118.426 16.4521 118.768 16.2506C119.701 15.7447 120.758 15.513 121.817 15.5822V15.4502C121.817 14.519 121.327 14.0534 120.348 14.0534C119.695 14.041 119.054 14.2231 118.505 14.5766L118.186 13.5446C118.923 13.1168 119.766 12.9055 120.618 12.935C122.466 12.935 123.391 13.9098 123.394 15.8594V18.4634C123.385 19.0272 123.42 19.5909 123.498 20.1494ZM121.866 17.7194V16.6274C120.132 16.597 119.265 17.0722 119.264 18.053C119.252 18.2047 119.273 18.3572 119.325 18.5002C119.377 18.6432 119.459 18.7735 119.566 18.8822C119.777 19.0693 120.052 19.1681 120.334 19.1582C120.681 19.1569 121.018 19.0418 121.294 18.8306C121.472 18.7053 121.617 18.5385 121.716 18.3447C121.815 18.1509 121.866 17.9359 121.864 17.7182L121.866 17.7194Z" fill="white"/>
<path d="M132.427 20.1489H131.033L130.96 19.0137H130.915C130.707 19.4304 130.381 19.7761 129.976 20.0068C129.572 20.2375 129.108 20.343 128.644 20.3097C128.236 20.3162 127.833 20.2291 127.465 20.0551C127.097 19.8812 126.773 19.6251 126.52 19.3065C125.935 18.5681 125.637 17.6434 125.68 16.7025C125.633 15.6949 125.959 14.7054 126.596 13.9233C126.865 13.608 127.2 13.3558 127.577 13.1847C127.955 13.0136 128.365 12.9277 128.779 12.9333C129.167 12.8945 129.559 12.9635 129.91 13.1329C130.262 13.3023 130.56 13.5655 130.771 13.8933H130.801V9.83374H132.374V18.2445C132.373 18.9325 132.39 19.5673 132.427 20.1489ZM130.798 17.1669V15.9873C130.801 15.8211 130.787 15.6549 130.754 15.4917C130.671 15.1219 130.471 14.7883 130.186 14.5389C129.896 14.2837 129.521 14.1463 129.134 14.1537C128.864 14.1448 128.595 14.2041 128.354 14.3261C128.112 14.4482 127.905 14.6291 127.752 14.8521C127.399 15.3801 127.222 16.0066 127.248 16.6413C127.219 17.246 127.388 17.8436 127.728 18.3441C127.881 18.5654 128.087 18.7451 128.327 18.8668C128.567 18.9886 128.833 19.0486 129.102 19.0413C129.34 19.0489 129.577 19.0001 129.793 18.899C130.008 18.7979 130.197 18.6472 130.344 18.4593C130.647 18.0981 130.809 17.6386 130.798 17.1669Z" fill="white"/>
<path d="M145.87 16.5548C145.908 17.5328 145.575 18.4891 144.938 19.232C144.612 19.5902 144.21 19.8725 143.763 20.059C143.315 20.2456 142.832 20.332 142.348 20.312C141.884 20.3324 141.421 20.2503 140.992 20.0718C140.564 19.8932 140.18 19.6225 139.867 19.2788C139.241 18.5592 138.911 17.6284 138.944 16.6748C138.906 15.6894 139.248 14.7269 139.9 13.9868C140.226 13.6366 140.625 13.3617 141.069 13.181C141.513 13.0003 141.99 12.9182 142.469 12.9404C142.936 12.9213 143.401 13.0036 143.833 13.1818C144.265 13.36 144.653 13.6297 144.971 13.9724C145.586 14.6886 145.907 15.6113 145.87 16.5548ZM144.241 16.6064C144.258 16.0184 144.112 15.437 143.82 14.9264C143.686 14.6691 143.483 14.4541 143.234 14.3057C142.985 14.1573 142.699 14.0814 142.409 14.0864C142.114 14.0783 141.823 14.1527 141.569 14.3011C141.315 14.4496 141.107 14.6661 140.969 14.9264C140.674 15.4459 140.528 16.0369 140.548 16.634C140.531 17.2221 140.677 17.8034 140.969 18.314C141.107 18.5709 141.313 18.7852 141.563 18.9341C141.814 19.083 142.101 19.1608 142.392 19.1592C142.684 19.1576 142.97 19.0767 143.219 18.925C143.468 18.7734 143.671 18.5568 143.807 18.2984C144.107 17.786 144.258 17.2001 144.244 16.6064H144.241Z" fill="white"/>
<path d="M154.325 20.1489H152.754V16.0989C152.754 14.8509 152.278 14.2269 151.327 14.2269C151.111 14.2205 150.897 14.2635 150.7 14.3527C150.504 14.442 150.33 14.575 150.193 14.7417C149.905 15.0789 149.749 15.51 149.756 15.9537V20.1477H148.186V15.0981C148.186 14.4773 148.167 13.8029 148.13 13.0749H149.506L149.579 14.1801H149.626C149.818 13.8296 150.099 13.5355 150.44 13.3269C150.869 13.0622 151.364 12.9245 151.867 12.9297C152.17 12.9206 152.472 12.9726 152.754 13.0827C153.037 13.1928 153.294 13.3587 153.511 13.5705C153.801 13.8842 154.023 14.2542 154.163 14.6575C154.303 15.0607 154.359 15.4885 154.326 15.9141L154.325 20.1489Z" fill="white"/>
<path d="M164.904 14.2562H163.172V17.6906C163.172 18.5642 163.48 18.9998 164.089 18.9998C164.325 19.0053 164.56 18.9807 164.79 18.9266L164.831 20.1194C164.437 20.249 164.024 20.3083 163.609 20.2946C163.34 20.3096 163.072 20.2666 162.821 20.1687C162.57 20.0708 162.343 19.9201 162.156 19.727C161.753 19.1774 161.566 18.4986 161.632 17.8202V14.2562H160.598V13.079H161.632V11.783L163.172 11.3174V13.0766H164.904V14.255V14.2562Z" fill="white"/>
<path d="M173.226 20.1489H171.658V16.1265C171.658 14.8593 171.183 14.2253 170.234 14.2245C169.897 14.2125 169.565 14.3149 169.293 14.5151C169.02 14.7152 168.824 15.0014 168.734 15.3273C168.683 15.5112 168.658 15.7016 168.661 15.8925V20.1453H167.086V9.83374H168.658V14.0949H168.688C168.905 13.7285 169.217 13.4272 169.59 13.2227C169.964 13.0181 170.386 12.9177 170.812 12.9321C171.111 12.9228 171.409 12.9749 171.687 13.0851C171.965 13.1953 172.218 13.3613 172.429 13.5729C172.714 13.8949 172.931 14.2705 173.068 14.6778C173.206 15.085 173.26 15.5156 173.228 15.9441L173.226 20.1489Z" fill="white"/>
<path d="M181.811 16.2804C181.814 16.5193 181.794 16.758 181.752 16.9932H177.037C177.027 17.2937 177.083 17.5927 177.201 17.8692C177.319 18.1457 177.496 18.3931 177.72 18.594C178.159 18.9373 178.706 19.1126 179.263 19.0884C179.914 19.097 180.561 18.9834 181.17 18.7536L181.416 19.8456C180.664 20.1525 179.856 20.3012 179.044 20.2824C178.57 20.3087 178.096 20.2362 177.651 20.0698C177.207 19.9033 176.802 19.6463 176.462 19.3152C176.141 18.9664 175.893 18.5571 175.732 18.1112C175.571 17.6653 175.501 17.1918 175.525 16.7184C175.49 15.7551 175.8 14.8108 176.399 14.0556C176.693 13.6856 177.07 13.3901 177.499 13.1931C177.929 12.996 178.399 12.903 178.871 12.9216C179.321 12.8967 179.77 12.988 180.175 13.1865C180.579 13.3851 180.926 13.6844 181.182 14.0556C181.619 14.7132 181.839 15.4913 181.811 16.2804ZM180.305 15.8736C180.327 15.4498 180.22 15.0292 180 14.6664C179.87 14.454 179.685 14.2809 179.465 14.1655C179.245 14.0501 178.997 13.9967 178.748 14.0112C178.503 14.0072 178.261 14.0635 178.043 14.1753C177.825 14.2871 177.638 14.4508 177.498 14.652C177.231 15.008 177.069 15.4316 177.031 15.8748H180.305V15.8736Z" fill="white"/>
</svg>
