<svg width="156" height="29" viewBox="0 0 156 29" fill="none" xmlns="http://www.w3.org/2000/svg">
<path d="M14.7445 0H6.74863L6.73331 0.0281664L5.62978 2.06477H14.7445C21.4962 2.06477 26.9729 7.61183 26.9729 14.4545C26.9729 21.2973 21.4979 26.8443 14.7445 26.8443C7.99116 26.8443 2.51552 21.2967 2.51552 14.4545C2.51496 13.1602 2.71503 11.8738 3.10841 10.6423H5.44312C3.78807 14.7859 4.99883 19.5387 8.42647 22.3533C11.8541 25.1679 16.6943 25.3837 20.3527 22.8851C24.0112 20.3866 25.6294 15.76 24.3401 11.485C23.0508 7.21009 19.1566 4.29003 14.7445 4.28992H4.4247L3.30642 6.35411H14.7445C18.3376 6.35485 21.4888 8.78427 22.4473 12.2927C23.4059 15.8011 21.9363 19.5264 18.855 21.399C15.7738 23.2715 11.8379 22.8312 9.23411 20.3227C6.6303 17.8141 5.99834 13.8537 7.68932 10.6417H10.3344C8.56886 12.7416 8.48345 15.8032 10.1291 18.0007C11.7747 20.1982 14.708 20.9394 17.1795 19.7823C19.651 18.6252 20.9947 15.8815 20.4093 13.1876C19.8239 10.4937 17.4671 8.5755 14.7445 8.57696H2.10134L0.982494 10.6423C0.647587 11.8846 0.477771 13.1667 0.477539 14.4545C0.477539 22.4371 6.86494 28.9091 14.7445 28.9091C22.6241 28.9091 29.0115 22.4371 29.0115 14.4545C29.0115 6.47195 22.6235 0 14.7445 0ZM14.7445 10.6423C16.8226 10.6423 18.5073 12.3491 18.5073 14.4545C18.5073 16.56 16.8226 18.2668 14.7445 18.2668C12.6664 18.2668 10.9817 16.56 10.9817 14.4545C10.9817 12.3491 12.6664 10.6423 14.7445 10.6423ZM35.2826 14.7598C35.2826 10.7441 37.9418 7.92281 41.9298 7.92281C44.3882 7.92281 46.395 9.01498 47.4486 10.8458L45.1411 12.4978C44.4132 11.3281 43.3096 10.7693 42.0053 10.7693C39.8493 10.7693 38.4184 12.3214 38.4184 14.7598C38.4184 17.174 39.8481 18.7496 42.0053 18.7496C43.3102 18.7496 44.4132 18.165 45.1411 16.9958L47.4486 18.6479C46.395 20.5034 44.3882 21.5709 41.9298 21.5709C37.9418 21.5709 35.2826 18.7496 35.2826 14.7598ZM47.882 14.7598C47.882 10.9981 50.5163 7.92281 54.6053 7.92281C58.7193 7.92281 61.328 10.9981 61.328 14.7598C61.328 18.4961 58.7182 21.5709 54.6053 21.5709C50.5192 21.5709 47.882 18.4956 47.882 14.7598ZM58.1922 14.7598C58.1922 12.3961 56.8124 10.7441 54.6053 10.7441C52.3983 10.7441 51.0179 12.3961 51.0179 14.7598C51.0179 17.0976 52.3977 18.7496 54.6053 18.7496C56.8129 18.7496 58.1922 17.0976 58.1922 14.7598ZM81.4162 8.27748L77.5013 21.2139H74.1959L71.4288 12.0897L68.6374 21.2139H65.3274L61.4353 8.27748H64.4718L67.1163 17.6046L69.9565 8.27748H72.8949L75.7357 17.6046L78.3552 8.27748H81.4162ZM124.419 8.27748L120.501 21.2139H117.195L114.428 12.0897L111.637 21.2139H108.334L104.44 8.28035H107.477L110.121 17.6075L112.959 8.27748H115.897L118.738 17.6046L121.358 8.27748H124.419ZM90.5751 8.22804V11.1252C90.1107 11.0472 89.6411 11.0047 89.1703 10.9981C86.9378 10.9981 85.7588 12.142 85.7588 14.8357V21.2162H82.7001V8.27748H85.7072V10.4388C86.3347 8.93968 87.7139 8.04985 89.4699 8.04985C89.8458 8.04241 90.2201 8.10275 90.5751 8.22804ZM103.272 8.27748V19.9177C103.272 24.2639 100.889 26.6523 96.6743 26.6523C94.4922 26.6523 92.4855 25.9919 91.2809 24.848L92.6608 22.586C93.7388 23.4483 95.1441 23.8822 96.499 23.8822C98.857 23.8822 100.262 22.5354 100.262 19.916V18.8002C99.5344 20.2235 97.9793 21.0875 96.0973 21.0875C93.3881 21.0875 91.6826 19.3595 91.6826 16.2078V8.27748H94.743V15.4203C94.743 17.4028 95.5458 18.2668 97.1509 18.2668C99.0073 18.2668 100.237 17.1235 100.237 15.2421V8.27748H103.272ZM125.224 4.18702C125.224 3.06841 126.002 2.25504 127.181 2.25504C128.334 2.25504 129.11 3.06841 129.11 4.18702C129.11 5.30563 128.332 6.11844 127.181 6.11844C126.002 6.11844 125.224 5.30506 125.224 4.18702ZM125.651 8.27863H128.711V21.2151H125.651V8.27863ZM130.251 19.1055L131.907 17.1482C132.91 18.2668 134.465 18.9273 136.096 18.9273C137.551 18.9273 138.354 18.3685 138.354 17.5552C138.354 16.8688 137.851 16.4371 136.573 16.1319L134.49 15.649C131.831 15.0138 130.703 13.7682 130.703 11.9891C130.703 9.60015 132.659 7.92281 135.971 7.92281C138.228 7.92281 140.11 8.71032 141.213 9.98183L139.582 11.9891C138.479 11.0234 137.224 10.5659 135.895 10.5659C134.465 10.5659 133.762 11.0999 133.762 11.888C133.762 12.4978 134.189 12.879 135.543 13.1836L137.751 13.7176C140.435 14.3275 141.413 15.5726 141.413 17.3517C141.413 19.9188 139.456 21.5709 136.07 21.5709C133.537 21.5709 131.405 20.6052 130.251 19.1055ZM155.005 15.6743H145.496C145.822 17.7586 147.177 18.8767 149.259 18.8767C150.689 18.8767 151.893 18.3432 152.821 17.2499L154.652 19.0802C153.448 20.6558 151.516 21.5709 149.158 21.5709C145.094 21.5709 142.385 18.8767 142.385 14.8104C142.385 10.7946 144.995 7.92281 148.858 7.92281C152.57 7.92281 155.078 10.5406 155.078 14.4798C155.078 14.8792 155.053 15.2781 155.005 15.6743ZM145.496 13.5659H152.021C151.87 11.6592 150.716 10.6176 148.886 10.6176C147.002 10.617 145.823 11.7098 145.496 13.5659Z" fill="#0066F5"/>
</svg>
