<svg width="156" height="29" viewBox="0 0 156 29" fill="none" xmlns="http://www.w3.org/2000/svg">
<path d="M20.6785 12.288C24.4145 9.24697 32.0444 -1.71138 20.0996 0.228614C14.8902 1.0151 7.2603 6.0486 5.73432 11.8686C4.94501 10.2956 4.05047 8.82751 3.10331 7.35941C1.62994 5.36698 -0.00128394 6.93995 1.57732 8.93238C6.25685 14.5778 8.95487 21.5933 9.25987 28.9091C9.62821 25.3961 9.04939 21.0967 7.62864 16.9021C8.31271 17.1118 9.10201 17.2167 9.78607 17.2167C12.2066 21.2015 15.9426 24.6096 20.0996 26.1826C23.9409 27.7031 29.0451 26.8118 26.9403 20.6772C25.8352 17.3215 23.2568 14.3853 20.6785 12.288ZM21.2047 1.64429C27.8348 0.910234 20.7311 9.14211 18.4158 10.6626C16.2584 9.24697 13.5221 7.9886 10.8911 8.35562C12.7854 5.8913 17.416 2.11618 21.2047 1.64429ZM10.8385 10.1383C12.6276 9.98102 14.5745 10.9772 16.1005 12.0259C14.6271 12.7599 13.0485 13.1794 11.4173 13.3367C8.99677 13.3367 8.47057 10.3481 10.8385 10.1383ZM19.9944 22.9318C16.8898 22.0405 13.9431 19.5237 11.8383 17.007C13.5747 16.6399 15.3112 15.9583 16.8898 15.0145C17.4686 14.7524 18.0474 14.3329 18.5736 13.9659C20.4153 15.6437 22.3623 17.8983 23.099 20.4675C23.8357 23.2464 21.8361 23.4561 19.9944 22.9318Z" fill="#F5A623"/>
<path d="M46.6652 5.57711H37.6941C37.3811 5.57711 37.1203 5.84818 37.1203 6.17346H37.0682V20.8112C37.0682 21.1365 37.329 21.4075 37.6419 21.4075C37.9027 21.4075 38.1635 21.1365 38.2156 20.8112V14.1971H45.8307C46.1436 14.1971 46.3001 13.926 46.3001 13.655C46.3001 13.3297 46.0914 13.167 45.8307 13.167H38.1635V6.7156H46.6652C46.9781 6.7156 47.1346 6.44453 47.1346 6.17346C47.1346 6.01082 46.9781 5.79396 46.6652 5.57711ZM50.7856 4.81812H50.7335C50.4727 4.81812 50.3162 5.03497 50.3162 5.30604V20.757C50.3162 21.0823 50.5248 21.2991 50.7856 21.2991C51.0986 21.2991 51.255 21.0281 51.255 20.757V5.41447C51.255 5.03497 51.0986 4.81812 50.7856 4.81812ZM63.7729 10.3479C63.7729 10.0226 63.5642 9.80579 63.3034 9.80579C62.9905 9.80579 62.834 10.0769 62.834 10.3479V16.7994C62.834 18.9679 61.2171 20.7028 59.2352 20.6486C57.1489 20.6486 55.9492 19.1306 55.9492 16.7452V10.3479C55.9492 10.0226 55.7406 9.80579 55.4798 9.80579C55.2712 9.80579 55.0104 10.0769 55.0104 10.3479V16.9078C55.0104 19.6185 56.5751 21.6244 59.1308 21.6244C60.6956 21.6786 62.156 20.757 62.8862 19.239V20.9196C62.8862 21.2449 63.147 21.4075 63.3556 21.4075C63.6686 21.4075 63.825 21.1365 63.825 20.9196H63.7729V10.3479ZM72.3789 10.8901C72.5875 10.8901 72.8483 10.6732 72.8483 10.4021C72.8483 10.1853 72.5875 9.91422 72.3789 9.91422H69.0929V6.7156C69.0929 6.44453 68.8322 6.17346 68.6235 6.17346H68.5714C68.3106 6.17346 68.1541 6.44453 68.1541 6.7156V9.91422H67.0066C66.7459 9.91422 66.5372 10.0769 66.5372 10.3479C66.5372 10.619 66.7459 10.8901 67.0066 10.8901H68.1541V18.3716C68.1541 20.4859 69.458 21.516 70.9706 21.516C71.4922 21.516 72.0138 21.4075 72.4832 21.2449C72.6397 21.1365 72.7961 20.9738 72.7961 20.757C72.7961 20.4859 72.5875 20.3233 72.3789 20.3233C72.0138 20.4317 71.5965 20.4859 71.1792 20.4859C69.9275 20.4859 69.0929 19.8896 69.0929 18.2631V10.8901H72.3789ZM80.4633 10.8901C80.7241 10.8901 80.9327 10.6732 80.9327 10.4021C80.9327 10.1853 80.7241 9.91422 80.4633 9.91422H77.1774V6.7156C77.1774 6.44453 76.9687 6.17346 76.708 6.17346H76.6558C76.395 6.17346 76.2385 6.44453 76.2385 6.7156V9.91422H75.0911C74.8824 9.91422 74.6217 10.0769 74.6217 10.3479C74.6217 10.619 74.8824 10.8901 75.0911 10.8901H76.2385V18.3716C76.2385 20.4859 77.5425 21.516 79.1072 21.516C79.5766 21.516 80.0982 21.4075 80.5676 21.2449C80.7762 21.1365 80.8806 20.9738 80.8806 20.757C80.8806 20.4859 80.7241 20.3233 80.4633 20.3233C80.0982 20.4317 79.6809 20.4859 79.2637 20.4859C78.0119 20.4859 77.1774 19.8896 77.1774 18.2631V10.8901H80.4633ZM87.6089 9.58893C84.8445 9.58893 82.7582 12.1912 82.7582 15.6067V15.6609C82.7582 19.2932 85.0532 21.6786 87.8175 21.6786C89.2779 21.7328 90.7905 21.0823 91.7815 19.8353C91.938 19.7269 91.9901 19.5643 91.9901 19.4558C91.9901 19.1848 91.7293 18.9137 91.5207 18.9137L91.2078 19.0221C90.3707 20.0365 89.1552 20.6287 87.8697 20.6486C85.8355 20.6486 84.01 18.9679 83.8014 16.1488H91.938C92.1466 16.1488 92.4074 15.8777 92.4074 15.6067C92.4074 12.1912 90.5297 9.58893 87.6089 9.58893ZM83.7492 15.0645C83.9057 12.5707 85.5226 10.619 87.5567 10.619C89.9038 10.619 91.1556 12.7333 91.2599 15.0645H83.7492ZM100.388 9.75157C98.5098 9.91422 96.9451 11.2696 96.2671 13.2213V10.4021C96.2671 10.1853 96.0063 9.91422 95.7976 9.91422C95.4847 9.91422 95.3282 10.0769 95.2761 10.4021V21.0281C95.2761 21.2991 95.4847 21.5702 95.7455 21.5702C96.0063 21.5702 96.2149 21.3533 96.2671 21.0281V16.7994C96.2671 13.0586 98.1969 11.2696 100.388 10.9985H100.44C100.753 10.9985 100.909 10.6732 100.909 10.4021C100.909 10.0226 100.7 9.75157 100.388 9.75157Z" fill="black"/>
<path d="M118.154 8.53964C117.467 8.53964 116.834 9.0629 116.675 9.79548L114.88 15.7607L113.138 9.79548C112.98 9.0629 112.293 8.48731 111.501 8.48731H111.343C110.551 8.48731 109.865 8.95825 109.706 9.79548L107.964 15.6561L106.275 9.74315C106.064 9.0629 105.483 8.48731 104.744 8.48731H104.691C103.899 8.48731 103.318 9.16756 103.318 10.0048L103.424 10.7897L106.116 19.005C106.328 19.8422 107.014 20.4178 107.859 20.4701H107.964C108.756 20.4701 109.39 19.8945 109.654 19.0573L111.396 13.1967L113.138 19.0573C113.349 19.8945 114.036 20.4701 114.828 20.4701H114.986C115.831 20.4701 116.517 19.8945 116.728 19.005L119.421 10.685L119.579 10.0571V10.0048C119.579 9.16756 118.946 8.53964 118.154 8.53964ZM125.915 8.53964C124.7 8.48731 123.539 8.74895 122.377 9.11523C121.902 9.32454 121.638 9.79548 121.638 10.3711C121.638 11.156 122.219 11.7316 122.958 11.6792C123.064 11.6792 123.222 11.6792 123.38 11.5746C124.067 11.3653 124.806 11.2606 125.545 11.2606C127.129 11.2606 127.921 11.9932 127.921 13.406V13.563C127.076 13.249 126.126 13.1444 125.228 13.1444C122.641 13.1444 120.846 14.3479 120.846 16.9119C120.846 19.1619 122.589 20.4701 124.595 20.4701C125.862 20.5224 127.076 19.9468 127.921 19.005C127.974 19.8422 128.607 20.4178 129.399 20.4178C130.244 20.4178 130.93 19.6852 130.93 18.7957V13.563C130.983 12.2548 130.561 10.8943 129.716 9.90013C128.818 9.0629 127.604 8.53964 125.915 8.53964ZM127.974 16.127C127.974 17.3828 126.918 18.1677 125.492 18.1154C124.489 18.1154 123.803 17.5921 123.803 16.7026V16.6503C123.803 15.6561 124.648 15.0281 125.967 15.0281C126.601 15.0281 127.34 15.2374 127.974 15.4991V16.127ZM141.648 8.48731C141.014 8.48731 140.381 8.90592 140.222 9.6385L137.794 16.3886L135.471 9.69082C135.259 8.95825 134.679 8.48731 133.94 8.48731C133.148 8.48731 132.514 9.11523 132.408 10.0048C132.408 10.2664 132.514 10.528 132.62 10.7897L135.999 19.005C136.21 19.8422 136.896 20.4178 137.741 20.4701H137.952C138.691 20.4178 139.43 19.8945 139.747 19.0573L143.02 10.842L143.179 10.0571V10.0048C143.179 9.16756 142.545 8.48731 141.648 8.48731ZM149.831 8.43499C146.61 8.43499 144.393 11.156 144.393 14.4525V14.9758C144.499 18.1677 147.138 20.6271 150.148 20.4701C151.52 20.4701 152.84 19.9992 153.949 19.0573C154.266 18.7957 154.371 18.4817 154.371 18.1154V18.0631C154.371 17.3305 153.843 16.7549 153.157 16.7549C152.893 16.7549 152.629 16.8072 152.418 17.0165C151.803 17.5417 151.012 17.8215 150.201 17.8014C148.881 17.8538 147.719 16.9119 147.561 15.4991H153.738C154.53 15.4467 155.163 14.7142 155.111 13.877V13.6153C155.111 10.7897 152.735 8.33033 149.831 8.43499ZM147.455 13.563C147.719 12.0455 148.564 11.1036 149.831 11.1036C151.098 11.1036 151.943 12.0978 152.101 13.563H147.455Z" fill="black"/>
</svg>
