<svg width="1041" height="598" viewBox="0 0 1041 598" fill="none" xmlns="http://www.w3.org/2000/svg">
<g opacity="0.08">
<circle cx="471" cy="288" r="9" fill="#33AE08"/>
<path d="M515.5 245L522.861 257.75H508.139L515.5 245Z" fill="#FDCF2A"/>
<path d="M533 285L548.588 312H517.412L533 285Z" fill="#FE5D5D"/>
<rect x="42" y="29" width="29.9" height="29.9" transform="rotate(164 42 29)" fill="#1689F2"/>
<rect opacity="0.9" x="308" y="34" width="18.72" height="18.72" transform="rotate(-165 308 34)" fill="#1689F2"/>
<rect opacity="0.99" x="750" y="107" width="23.66" height="23.66" transform="rotate(168 750 107)" fill="#1689F2"/>
<path opacity="0.75" d="M19.0152 277.958L41.5455 302.981L8.61026 309.981L19.0152 277.958Z" fill="#FE5D5D"/>
<rect opacity="0.95" x="590" y="379" width="24.7" height="24.7" transform="rotate(-82 590 379)" fill="#1689F2"/>
<rect opacity="0.7" x="1021" y="263" width="21.58" height="21.58" transform="rotate(26 1021 263)" fill="#1689F2"/>
<path opacity="0.96" d="M47.9824 597.28L33.6914 573.495L61.4347 573.011L47.9824 597.28Z" fill="#FE5D5D"/>
<path opacity="0.8" d="M479.527 454.516L478.283 440.289L491.226 446.324L479.527 454.516Z" fill="#FDCF2A"/>
<path opacity="0.92" d="M1004.53 489.083L983.569 484.244L998.24 468.511L1004.53 489.083Z" fill="#FE5D5D"/>
</g>
</svg>
