<svg width="130" height="29" viewBox="0 0 130 29" fill="none" xmlns="http://www.w3.org/2000/svg">
<path d="M77.0701 9.04863V28.6893H71.3742V25.8209C70.7927 26.8175 69.9487 27.6353 68.9342 28.185C67.8844 28.7373 66.7126 29.0172 65.5264 28.9989C63.0728 28.9989 61.2391 28.3141 60.0252 26.9445C58.8114 25.5749 58.2058 23.5088 58.2084 20.7462V9.04863H64.0503V20.863C64.0503 23.2388 65.0701 24.4266 67.1096 24.4266C68.3221 24.4266 69.3036 24.0138 70.0539 23.1881C70.8043 22.3625 71.1788 21.2778 71.1775 19.9342V9.04863H77.0701ZM99.4059 0.0909424V28.6893H93.6341V25.7839C93.036 26.7937 92.1635 27.6128 91.1181 28.146C89.9797 28.7274 88.7158 29.0203 87.4377 28.9989C85.8421 29.0253 84.2753 28.5729 82.9394 27.7001C81.5917 26.7992 80.5248 25.5373 79.8607 24.0586C79.1246 22.5007 78.7565 20.7124 78.7565 18.6937C78.7565 16.675 79.1246 14.8997 79.8607 13.3678C80.5238 11.9151 81.5844 10.6796 82.9199 9.80419C84.2699 8.95275 85.84 8.51604 87.4358 8.54816C88.6861 8.53279 89.9218 8.81866 91.0383 9.38162C92.0783 9.89632 92.9513 10.695 93.5562 11.6853V0.0909424H99.4059ZM92.4813 23.0518C93.2602 22.0587 93.6497 20.6307 93.6497 18.7677C93.6497 16.9333 93.2556 15.5196 92.4676 14.5264C91.6796 13.5333 90.5761 13.0361 89.1572 13.0348C87.7097 13.0348 86.5861 13.5255 85.7864 14.507C84.9867 15.4884 84.5868 16.8827 84.5868 18.6898C84.5868 20.5489 84.9867 21.9886 85.7864 23.009C86.5861 24.0294 87.7097 24.5396 89.1572 24.5396C90.5943 24.5422 91.7023 24.0463 92.4813 23.0518ZM121.742 9.04863V28.6893H115.968V25.7839C115.37 26.7943 114.497 27.6136 113.45 28.146C112.312 28.7258 111.049 29.0173 109.772 28.9951C108.177 29.0382 106.606 28.6064 105.257 27.7544C103.909 26.9025 102.844 25.6689 102.198 24.2105C101.462 22.6747 101.094 20.8994 101.094 18.8846C101.094 16.8697 101.462 15.0743 102.198 13.4983C102.859 12.0125 103.926 10.744 105.277 9.83924C106.613 8.96997 108.178 8.52032 109.772 8.54816C111.054 8.52759 112.32 8.83457 113.45 9.44004C114.493 9.99454 115.365 10.8251 115.968 11.8411V9.04863H121.742ZM114.807 23.0694C115.586 22.0879 115.976 20.6677 115.976 18.8086C115.976 16.9496 115.586 15.5215 114.807 14.5245C114.028 13.5288 112.918 13.0316 111.475 13.0328C110.033 13.0341 108.91 13.5515 108.105 14.5849C107.305 15.6234 106.904 17.0573 106.903 18.8865C106.902 20.7157 107.296 22.1165 108.085 23.0888C108.873 24.056 110.003 24.5402 111.475 24.5415C112.92 24.5428 114.031 24.0527 114.807 23.0713V23.0694ZM57.0186 28.9658H49.7609L41.9521 20.0607V28.9658H36.0284V0.0909424H41.9521V17.6266L49.4065 9.11484H56.5084L48.0726 18.6567L57.0186 28.9658ZM19.7994 28.9756L8.43091 15.8896L14.639 28.9756H10.3354L4.00269 15.6345L6.63548 28.9756H3.99101L1.35628 15.615V28.9756H0.318359V0.0909424H1.35628V14.5011L4.02801 0.0909424H6.66468L3.98127 14.5634L10.4366 0.0909424H14.6935L8.26344 14.5109L19.9396 0.0909424H26.6111L14.5338 15.0094L26.6676 28.9756H19.7994Z" fill="#41276D"/>
<path d="M126.647 28.6581C128.418 28.6581 129.854 27.2222 129.854 25.4509C129.854 23.6796 128.418 22.2437 126.647 22.2437C124.876 22.2437 123.44 23.6796 123.44 25.4509C123.44 27.2222 124.876 28.6581 126.647 28.6581Z" fill="#41276D"/>
</svg>
