<svg width="204" height="60" viewBox="0 0 204 60" fill="none" xmlns="http://www.w3.org/2000/svg">
<path fill-rule="evenodd" clip-rule="evenodd" d="M195.8 60H7.5336C5.54166 59.9991 3.63108 59.2097 2.21943 57.8043C0.807771 56.3989 0.00983103 54.4919 0 52.5L0 7.5C0.00730564 5.5073 0.804437 3.59881 2.21664 2.1929C3.62885 0.786993 5.54089 -0.00159928 7.5336 2.43518e-06H195.8C197.793 -0.000965975 199.705 0.787831 201.117 2.1936C202.529 3.59937 203.326 5.5075 203.334 7.5V52.5C203.324 54.4917 202.525 56.3984 201.114 57.8036C199.702 59.2088 197.792 59.9984 195.8 60Z" fill="black"/>
<path fill-rule="evenodd" clip-rule="evenodd" d="M195.8 1.2C197.474 1.20029 199.079 1.86294 200.266 3.04317C201.452 4.2234 202.124 5.82527 202.133 7.4988V52.4988C202.127 54.1737 201.457 55.778 200.27 56.9595C199.083 58.1409 197.475 58.8029 195.8 58.8H7.5336C5.85963 58.8 4.25372 58.1373 3.06691 56.9568C1.88009 55.7763 1.20888 54.1739 1.2 52.5V7.5C1.20572 5.82507 1.87592 4.22087 3.06342 3.03967C4.25093 1.85846 5.85866 1.19681 7.5336 1.2H195.8ZM195.8 0H7.5336C5.54166 0.000927151 3.63108 0.790334 2.21943 2.1957C0.807771 3.60106 0.00983103 5.50809 0 7.5L0 52.5C0.00730564 54.4927 0.804437 56.4012 2.21664 57.8071C3.62885 59.213 5.54089 60.0016 7.5336 60H195.8C197.793 60.001 199.705 59.2122 201.117 57.8064C202.529 56.4006 203.326 54.4925 203.334 52.5V7.5C203.324 5.50828 202.525 3.60162 201.114 2.19639C199.702 0.791168 197.792 0.00155756 195.8 0V0Z" fill="black"/>
<path d="M107.122 19.8481C106.487 19.8634 105.856 19.7459 105.269 19.5031C104.682 19.2603 104.152 18.8976 103.714 18.4382C103.268 17.9844 102.916 17.4464 102.68 16.8556C102.444 16.2647 102.327 15.6328 102.337 14.9965C102.322 14.3601 102.436 13.7271 102.672 13.1361C102.909 12.5451 103.263 12.0084 103.714 11.5586C104.152 11.0992 104.68 10.7365 105.267 10.4937C105.853 10.2508 106.484 10.1333 107.118 10.1485C107.752 10.1365 108.383 10.2555 108.969 10.4981C109.556 10.7407 110.086 11.1017 110.526 11.5586C111.41 12.4848 111.903 13.7158 111.903 14.996C111.903 16.2761 111.41 17.5071 110.526 18.4334C110.09 18.8948 109.561 19.2593 108.974 19.5031C108.388 19.7468 107.757 19.8644 107.122 19.8481ZM66.7189 19.8481C66.0843 19.8575 65.4541 19.7391 64.8662 19.4999C64.2782 19.2608 63.7444 18.9058 63.2965 18.4561C62.6091 17.78 62.139 16.9143 61.9462 15.9696C61.7534 15.0249 61.8467 14.0442 62.2141 13.1528C62.5815 12.2614 63.2062 11.4998 64.0087 10.9653C64.8111 10.4308 65.7548 10.1477 66.7189 10.1522C67.3766 10.151 68.0273 10.2858 68.6304 10.5481C69.1903 10.7763 69.6889 11.1327 70.086 11.5886L70.1761 11.6965L69.162 12.6914L69.0577 12.5714C68.7703 12.2322 68.4083 11.9642 68.0001 11.7882C67.5918 11.6123 67.1483 11.5333 66.7044 11.5573C66.2692 11.5523 65.8375 11.6347 65.4347 11.7996C65.0319 11.9645 64.6664 12.2086 64.3596 12.5173C63.7253 13.1917 63.3722 14.0827 63.3722 15.0086C63.3722 15.9344 63.7253 16.8254 64.3596 17.4997C64.9985 18.1141 65.8504 18.4573 66.7368 18.4573C67.6232 18.4573 68.4752 18.1141 69.1141 17.4997C69.5127 17.0722 69.755 16.5224 69.8017 15.9398H66.5509V14.5405H71.1972L71.2164 14.6678C71.255 14.9003 71.2775 15.1353 71.2837 15.371C71.3105 15.9399 71.2216 16.5084 71.0223 17.042C70.8231 17.5756 70.5175 18.0632 70.1244 18.4754C69.6836 18.9301 69.1524 19.2872 68.5649 19.5237C67.9775 19.7602 67.347 19.8707 66.7141 19.8481H66.7189ZM120.438 19.6501H119.002L114.614 12.629L114.652 13.8937V19.6465H113.219V10.3513H114.853L114.898 10.4222L119.023 17.0354L118.986 15.7742V10.3501H120.433L120.438 19.6501ZM96.3552 19.6501H94.9044V11.7494H92.3844V10.3501H98.8645V11.7494H96.3445V19.6501H96.3552ZM91.2048 19.6501H89.7577V10.3513H91.2048V19.6501ZM83.0689 19.6501H81.6217V11.7494H79.1017V10.3501H85.5817V11.7494H83.0616L83.0689 19.6501ZM78.1872 19.6357H72.636V10.3513H78.1872V11.7506H74.0881V14.3017H77.7877V15.6854H74.0881V18.2366H78.1872V19.6357ZM104.776 17.4758C105.08 17.789 105.444 18.0368 105.848 18.204C106.251 18.3711 106.684 18.4541 107.12 18.4478C107.558 18.4593 107.993 18.3787 108.397 18.2112C108.801 18.0438 109.165 17.7932 109.466 17.4758C110.081 16.7976 110.422 15.9149 110.422 14.9995C110.422 14.0841 110.081 13.2015 109.466 12.5233C109.162 12.2104 108.797 11.9628 108.394 11.7956C107.991 11.6285 107.558 11.5454 107.122 11.5513C106.685 11.5398 106.251 11.6203 105.847 11.7878C105.444 11.9553 105.08 12.2059 104.78 12.5233C104.166 13.2011 103.824 14.0831 103.823 14.9982C103.822 15.9133 104.16 16.7962 104.773 17.4758H104.776Z" fill="white"/>
<path fill-rule="evenodd" clip-rule="evenodd" d="M102.198 32.6293C100.937 32.633 99.7048 33.0105 98.6578 33.714C97.6109 34.4176 96.7959 35.4156 96.3158 36.582C95.8358 37.7484 95.7122 39.0309 95.9606 40.2675C96.209 41.5042 96.8183 42.6395 97.7115 43.53C98.6048 44.4206 99.7419 45.0265 100.979 45.2711C102.217 45.5158 103.499 45.3884 104.664 44.9048C105.829 44.4212 106.824 43.6033 107.525 42.5542C108.225 41.5052 108.599 40.2722 108.599 39.0108C108.612 38.1674 108.456 37.3299 108.139 36.5483C107.822 35.7667 107.35 35.057 106.753 34.4614C106.156 33.8659 105.445 33.3967 104.662 33.0819C103.879 32.7671 103.041 32.6132 102.198 32.6293ZM102.198 42.864C101.421 42.92 100.645 42.7406 99.9716 42.3494C99.2981 41.9581 98.7578 41.373 98.4214 40.6704C98.085 39.9678 97.9681 39.1802 98.0857 38.4102C98.2032 37.6401 98.55 36.9234 99.0807 36.3532C99.6115 35.783 100.302 35.3858 101.061 35.2134C101.821 35.041 102.615 35.1014 103.34 35.3866C104.065 35.6718 104.687 36.1688 105.125 36.8126C105.564 37.4565 105.798 38.2174 105.798 38.9964C105.822 39.4886 105.748 39.9806 105.579 40.4435C105.41 40.9063 105.15 41.3306 104.814 41.6915C104.479 42.0524 104.074 42.3425 103.625 42.5447C103.176 42.7469 102.691 42.8571 102.198 42.8688V42.864ZM88.2372 32.6293C86.9758 32.6328 85.7438 33.0101 84.6967 33.7135C83.6496 34.4168 82.8345 35.4147 82.3543 36.5811C81.874 37.7475 81.7502 39.0301 81.9985 40.2668C82.2467 41.5035 82.8559 42.6389 83.7491 43.5296C84.6423 44.4203 85.7795 45.0263 87.0169 45.2711C88.2543 45.5159 89.5365 45.3885 90.7015 44.9049C91.8666 44.4214 92.8621 43.6034 93.5625 42.5544C94.2629 41.5053 94.6368 40.2722 94.6368 39.0108C94.6504 38.1675 94.4939 37.3301 94.1769 36.5486C93.8598 35.767 93.3886 35.0574 92.7914 34.4618C92.1942 33.8663 91.4831 33.3971 90.7007 33.0823C89.9182 32.7674 89.0805 32.6134 88.2372 32.6293ZM88.2372 42.864C87.4603 42.92 86.6844 42.7406 86.0108 42.3494C85.3372 41.9581 84.7971 41.373 84.4607 40.6704C84.1243 39.9678 84.0072 39.1802 84.1248 38.4102C84.2424 37.6401 84.5892 36.9234 85.1199 36.3532C85.6506 35.783 86.3408 35.3858 87.1005 35.2134C87.8602 35.041 88.6541 35.1014 89.3789 35.3866C90.1038 35.6718 90.726 36.1688 91.1644 36.8126C91.6029 37.4565 91.8374 38.2174 91.8372 38.9964C91.8614 39.4886 91.7867 39.9806 91.6178 40.4435C91.4489 40.9063 91.1891 41.3306 90.8536 41.6915C90.5181 42.0524 90.1138 42.3425 89.6644 42.5447C89.2151 42.7469 88.7298 42.8571 88.2372 42.8688V42.864ZM71.6208 34.584V37.2853H78.1008C78.0048 38.5506 77.4886 39.7476 76.6343 40.686C75.9861 41.3485 75.2058 41.8672 74.3442 42.2087C73.4826 42.5503 72.5588 42.7068 71.6328 42.6684C69.7232 42.6684 67.8918 41.9099 66.5416 40.5596C65.1913 39.2094 64.4328 37.378 64.4328 35.4684C64.4328 33.5589 65.1913 31.7275 66.5416 30.3773C67.8918 29.027 69.7232 28.2684 71.6328 28.2684C73.4509 28.2469 75.2045 28.9418 76.5144 30.2028L78.4343 28.2828C77.5434 27.3979 76.4847 26.7001 75.3201 26.2305C74.1555 25.7608 72.9087 25.5288 71.6531 25.5481C70.3347 25.519 69.0238 25.7536 67.7972 26.2381C66.5707 26.7225 65.4534 27.4472 64.5107 28.3693C63.568 29.2915 62.819 30.3927 62.3076 31.6083C61.7962 32.8238 61.5328 34.1293 61.5328 35.4481C61.5328 36.7668 61.7962 38.0722 62.3076 39.2878C62.819 40.5033 63.568 41.6046 64.5107 42.5268C65.4534 43.4489 66.5707 44.1735 67.7972 44.658C69.0238 45.1424 70.3347 45.3771 71.6531 45.3481C72.9375 45.4012 74.2185 45.1805 75.4111 44.7007C76.6036 44.221 77.6803 43.493 78.57 42.5652C80.1491 40.8416 80.9923 38.5693 80.9196 36.2328C80.9265 35.6692 80.8762 35.1063 80.7696 34.5528H71.6196L71.6184 34.5828L71.6208 34.584ZM139.585 36.6864C139.202 35.5294 138.472 34.5183 137.495 33.7908C136.517 33.0633 135.339 32.6549 134.12 32.6208C133.301 32.6262 132.491 32.7977 131.739 33.125C130.988 33.4523 130.31 33.9286 129.748 34.5251C129.186 35.1216 128.751 35.826 128.468 36.5955C128.186 37.3651 128.063 38.1839 128.106 39.0024C128.087 39.8415 128.237 40.6759 128.548 41.4556C128.859 42.2353 129.324 42.9442 129.915 43.54C130.506 44.1358 131.212 44.6062 131.989 44.923C132.766 45.2399 133.599 45.3967 134.438 45.384C135.49 45.3904 136.527 45.1348 137.455 44.6404C138.383 44.146 139.173 43.4283 139.754 42.552L137.594 41.1013C137.27 41.6425 136.811 42.09 136.261 42.3995C135.712 42.7091 135.091 42.8701 134.46 42.8665C133.809 42.8908 133.166 42.7195 132.613 42.3747C132.06 42.0299 131.623 41.5274 131.359 40.932L139.891 37.3968L139.583 36.6853L139.585 36.6864ZM130.884 38.8188C130.855 38.3549 130.918 37.8898 131.07 37.4506C131.223 37.0114 131.461 36.6068 131.771 36.2606C132.081 35.9144 132.457 35.6333 132.877 35.4338C133.297 35.2344 133.752 35.1205 134.216 35.0988C134.7 35.0655 135.183 35.1758 135.604 35.416C136.026 35.6562 136.366 36.0155 136.584 36.4488L130.884 38.8188ZM123.953 45.0024H126.757V26.2524H123.955L123.953 45.0024ZM119.352 34.0536H119.251C118.825 33.5883 118.304 33.2198 117.723 32.9726C117.143 32.7255 116.516 32.6055 115.885 32.6208C114.239 32.6886 112.684 33.3899 111.543 34.5783C110.403 35.7667 109.766 37.3499 109.766 38.997C109.766 40.6441 110.403 42.2273 111.543 43.4157C112.684 44.6041 114.239 45.3055 115.885 45.3732C116.517 45.3871 117.145 45.2646 117.726 45.0143C118.307 44.764 118.827 44.3916 119.251 43.9224H119.352V44.8392C119.352 47.274 118.05 48.5868 115.951 48.5868C115.251 48.5701 114.571 48.3456 113.998 47.9421C113.425 47.5385 112.985 46.974 112.734 46.32L110.299 47.3376C110.761 48.4551 111.544 49.4102 112.55 50.081C113.556 50.7518 114.738 51.108 115.948 51.1044C119.232 51.1044 122.015 49.1701 122.015 44.4541V33.0036H119.366V34.0548L119.352 34.0536ZM116.135 42.8701C115.166 42.7881 114.263 42.3453 113.605 41.6294C112.947 40.9135 112.582 39.9766 112.582 39.0043C112.582 38.0319 112.947 37.095 113.605 36.379C114.263 35.6631 115.166 35.2204 116.135 35.1385C116.616 35.1619 117.087 35.282 117.521 35.4916C117.955 35.7012 118.342 35.9959 118.659 36.3583C118.976 36.7207 119.217 37.1434 119.368 37.6009C119.518 38.0585 119.575 38.5416 119.534 39.0216C119.576 39.5002 119.52 39.9822 119.369 40.4384C119.219 40.8946 118.977 41.3155 118.659 41.6753C118.341 42.0352 117.953 42.3266 117.518 42.5317C117.084 42.7369 116.612 42.8516 116.132 42.8688L116.135 42.8701ZM152.704 26.2536H146.004V45.0013H148.806V37.902H152.707C153.499 37.9461 154.292 37.8281 155.037 37.5553C155.782 37.2825 156.463 36.8606 157.04 36.3155C157.616 35.7703 158.075 35.1134 158.389 34.3847C158.702 33.6561 158.864 32.8711 158.864 32.0778C158.864 31.2845 158.702 30.4995 158.389 29.7709C158.075 29.0423 157.616 28.3853 157.04 27.8402C156.463 27.295 155.782 26.8731 155.037 26.6003C154.292 26.3275 153.499 26.2095 152.707 26.2536H152.704ZM152.786 35.2836H148.802V28.8492H152.786C153.209 28.8492 153.627 28.9325 154.017 29.0941C154.408 29.2558 154.763 29.4927 155.061 29.7915C155.36 30.0902 155.597 30.4449 155.759 30.8353C155.92 31.2256 156.004 31.644 156.004 32.0665C156.004 32.489 155.92 32.9073 155.759 33.2976C155.597 33.6879 155.36 34.0426 155.061 34.3414C154.763 34.6401 154.408 34.877 154.017 35.0387C153.627 35.2004 153.209 35.2836 152.786 35.2836ZM170.087 32.6016C169.065 32.5432 168.048 32.7829 167.16 33.2917C166.272 33.8004 165.551 34.5563 165.085 35.4672L167.569 36.4992C167.815 36.0466 168.187 35.6751 168.64 35.4295C169.093 35.184 169.607 35.0749 170.12 35.1156C170.832 35.0472 171.541 35.263 172.094 35.7158C172.647 36.1685 172.998 36.8216 173.071 37.5325V37.7304C172.171 37.2576 171.169 37.0106 170.153 37.0105C167.471 37.0105 164.753 38.4769 164.753 41.2261C164.778 41.8058 164.919 42.3746 165.168 42.8987C165.417 43.4228 165.769 43.8916 166.203 44.2772C166.636 44.6627 167.143 44.9573 167.693 45.1433C168.243 45.3293 168.824 45.403 169.403 45.36C170.107 45.4012 170.809 45.2529 171.436 44.9306C172.063 44.6084 172.592 44.1239 172.968 43.5276H173.069V44.9796H175.77V37.7976C175.765 34.452 173.281 32.6004 170.083 32.6004L170.087 32.6016ZM169.735 42.8701C168.818 42.8701 167.536 42.4212 167.536 41.2692C167.536 39.8184 169.136 39.2676 170.502 39.2676C171.394 39.2402 172.277 39.459 173.053 39.9C172.955 40.714 172.563 41.4644 171.952 42.0108C171.341 42.5572 170.551 42.8622 169.732 42.8688L169.735 42.8701ZM185.622 33.0024L182.405 41.1348H182.304L178.972 33.0024H175.957L180.959 44.37L178.109 50.688H181.026L188.72 33.0024H185.622ZM160.403 45.0024H163.205V26.2524H160.403V45.0024Z" fill="white"/>
<path fill-rule="evenodd" clip-rule="evenodd" d="M15.6504 11.3004C15.163 11.8942 14.9186 12.6505 14.9664 13.4172V46.5852C14.9122 47.3499 15.1639 48.1048 15.666 48.684L15.786 48.7848L34.3692 30.2016V29.7864L15.7692 11.1996L15.6504 11.3004Z" fill="url(#paint0_linear)"/>
<path fill-rule="evenodd" clip-rule="evenodd" d="M40.548 36.415L34.35 30.217V29.7826L40.548 23.5846L40.6824 23.6674L48.0144 27.835C50.1132 29.017 50.1132 30.9694 48.0144 32.167L40.6824 36.3346L40.548 36.415Z" fill="url(#paint1_linear)"/>
<path fill-rule="evenodd" clip-rule="evenodd" d="M40.6824 36.3324L34.35 30L15.6504 48.6996C16.078 49.0758 16.6231 49.2916 17.1923 49.31C17.7616 49.3284 18.3194 49.1482 18.7704 48.8004L40.6872 36.3324" fill="url(#paint2_linear)"/>
<path fill-rule="evenodd" clip-rule="evenodd" d="M40.6824 23.6679L18.7704 11.2203C18.3213 10.868 17.7625 10.685 17.1921 10.7034C16.6216 10.7218 16.0758 10.9405 15.6504 11.3211L34.35 30.0014L40.6824 23.6679Z" fill="url(#paint3_linear)"/>
<path opacity="0.2" fill-rule="evenodd" clip-rule="evenodd" d="M40.5492 36.198L18.786 48.564C18.3569 48.8954 17.8306 49.0764 17.2884 49.079C16.7463 49.0816 16.2183 48.9057 15.786 48.5784L15.666 48.6984L15.786 48.7992C16.2187 49.1255 16.7465 49.3008 17.2884 49.2982C17.8304 49.2956 18.3565 49.1152 18.786 48.7848L40.7028 36.336L40.5492 36.198Z" fill="black"/>
<path opacity="0.12" fill-rule="evenodd" clip-rule="evenodd" d="M48.0156 31.9486L40.53 36.1978L40.6645 36.3322L47.9965 32.1646C48.4268 31.9774 48.7991 31.6783 49.0747 31.2985C49.3503 30.9186 49.5191 30.4718 49.5635 30.0046C49.4802 30.429 49.2961 30.8271 49.0267 31.1654C48.7573 31.5037 48.4105 31.7723 48.0156 31.9486Z" fill="black"/>
<path opacity="0.25" fill-rule="evenodd" clip-rule="evenodd" d="M18.7668 11.4351L48.0144 28.0514C48.4106 28.23 48.759 28.4995 49.0314 28.8382C49.3037 29.1768 49.4922 29.575 49.5816 30.0003C49.5372 29.5331 49.3683 29.0863 49.0927 28.7064C48.8171 28.3266 48.4448 28.0275 48.0144 27.8403L18.7668 11.2191C16.668 10.0191 14.9664 11.0211 14.9664 13.4187V13.6359C14.9664 11.2335 16.668 10.2495 18.7668 11.4351Z" fill="white"/>
<defs>
<linearGradient id="paint0_linear" x1="62.9408" y1="50.1003" x2="60.6731" y2="49.7838" gradientUnits="userSpaceOnUse">
<stop stop-color="#00A0FF"/>
<stop offset="0.007" stop-color="#00A1FF"/>
<stop offset="0.26" stop-color="#00BEFF"/>
<stop offset="0.512" stop-color="#00D2FF"/>
<stop offset="0.76" stop-color="#00DFFF"/>
<stop offset="1" stop-color="#00E3FF"/>
</linearGradient>
<linearGradient id="paint1_linear" x1="64.0651" y1="47.6929" x2="60.1031" y2="47.6929" gradientUnits="userSpaceOnUse">
<stop stop-color="#FFE000"/>
<stop offset="0.409" stop-color="#FFBD00"/>
<stop offset="0.775" stop-color="#FFA500"/>
<stop offset="1" stop-color="#FF9C00"/>
</linearGradient>
<linearGradient id="paint2_linear" x1="63.8713" y1="48.2685" x2="62.3554" y2="44.9641" gradientUnits="userSpaceOnUse">
<stop stop-color="#FF3A44"/>
<stop offset="1" stop-color="#C31162"/>
</linearGradient>
<linearGradient id="paint3_linear" x1="62.1098" y1="51.0956" x2="62.7938" y2="49.6241" gradientUnits="userSpaceOnUse">
<stop stop-color="#32A071"/>
<stop offset="0.068" stop-color="#2DA771"/>
<stop offset="0.476" stop-color="#15CF74"/>
<stop offset="0.801" stop-color="#06E775"/>
<stop offset="1" stop-color="#00F076"/>
</linearGradient>
</defs>
</svg>
